<svg width="165" height="49" viewBox="0 0 165 49" fill="none" xmlns="http://www.w3.org/2000/svg">
<g clip-path="url(#clip0)">
<path d="M151.86 3.71797e-05H13.147C12.6414 3.71797e-05 12.1418 3.71798e-05 11.6375 0.00248718C11.2154 0.00493718 10.7966 0.0120544 10.3704 0.0180447C9.44452 0.0277244 8.52081 0.100091 7.60731 0.234514C6.69509 0.371865 5.81144 0.630809 4.98626 1.00259C4.16209 1.37752 3.40902 1.86469 2.75437 2.44645C2.09628 3.02657 1.54772 3.69711 1.12977 4.43228C0.710665 5.166 0.420057 5.95224 0.267981 6.76385C0.11446 7.57444 0.0318494 8.39437 0.0208897 9.2163C0.00809391 9.59189 0.00674263 9.96872 0 10.3444V38.6593C0.00674263 39.0397 0.00809391 39.4082 0.0208897 39.7887C0.0318528 40.6105 0.114464 41.4304 0.267981 42.241C0.419637 43.0531 0.710262 43.8398 1.12977 44.5737C1.54753 45.3065 2.09617 45.9744 2.75437 46.5513C3.40654 47.1356 4.16009 47.6231 4.98626 47.9952C5.81144 48.3679 6.69499 48.6284 7.60731 48.7679C8.52097 48.9012 9.44458 48.9736 10.3704 48.9845C10.7966 48.9928 11.2154 48.9976 11.6375 48.9976C12.1418 49 12.6414 49 13.147 49H151.86C152.356 49 152.86 49 153.355 48.9976C153.775 48.9976 154.206 48.9928 154.626 48.9845C155.55 48.9742 156.472 48.9018 157.384 48.7679C158.299 48.6274 159.186 48.367 160.015 47.9952C160.841 47.6229 161.593 47.1354 162.245 46.5513C162.902 45.9721 163.451 45.3048 163.874 44.5737C164.291 43.8392 164.579 43.0526 164.728 42.241C164.882 41.4303 164.967 40.6106 164.984 39.7887C164.989 39.4082 164.989 39.0397 164.989 38.6593C165 38.2143 165 37.7717 165 37.3194V11.6818C165 11.2332 165 10.7882 164.989 10.3444C164.989 9.96872 164.989 9.59189 164.984 9.21625C164.967 8.39425 164.882 7.5745 164.728 6.7638C164.578 5.95266 164.29 5.16648 163.874 4.43223C163.023 2.95865 161.674 1.75917 160.015 1.00248C159.186 0.631607 158.299 0.372732 157.384 0.234404C156.472 0.0993881 155.55 0.0269967 154.626 0.0178732C154.206 0.0118952 153.775 0.00471668 153.355 0.00232793C152.86 -0.00012207 152.356 -0.00012207 151.86 -0.00012207V3.71797e-05Z" fill="#A6A6A6"/>
<path d="M11.5249 47.9318C11.1041 47.9318 10.6934 47.927 10.2759 47.9187C9.41092 47.9087 8.54798 47.8419 7.69414 47.7189C6.89798 47.5972 6.12671 47.371 5.40578 47.0476C4.69146 46.7268 4.03995 46.3062 3.47619 45.802C2.90427 45.3036 2.42813 44.7256 2.06662 44.0909C1.70113 43.452 1.44819 42.7672 1.3166 42.0604C1.17451 41.3009 1.09763 40.5329 1.08663 39.763C1.07787 39.5046 1.06641 38.6442 1.06641 38.6442V10.3401C1.06641 10.3401 1.07862 9.49299 1.0867 9.24411C1.09723 8.47548 1.17366 7.70868 1.31533 6.95034C1.44716 6.24155 1.7003 5.5548 2.06598 4.91384C2.42616 4.27954 2.89967 3.70112 3.46814 3.20099C4.03597 2.69612 4.68957 2.27338 5.40511 1.94821C6.12438 1.62582 6.89419 1.40116 7.68874 1.28174C8.54538 1.15746 9.41132 1.09027 10.2793 1.08073L11.5256 1.06577H153.474L154.735 1.08133C155.595 1.09039 156.453 1.15699 157.302 1.28054C158.104 1.40146 158.882 1.62769 159.61 1.9518C161.043 2.60712 162.21 3.6439 162.946 4.91683C163.305 5.55336 163.555 6.23452 163.685 6.93718C163.828 7.70174 163.908 8.47457 163.925 9.2495C163.929 9.59649 163.929 9.96921 163.929 10.3401C163.94 10.7996 163.94 11.2369 163.94 11.6779V37.3209C163.94 37.766 163.94 38.2003 163.929 38.6382C163.929 39.0367 163.929 39.4017 163.923 39.7774C163.907 40.5385 163.828 41.2975 163.687 42.0484C163.558 42.7603 163.307 43.4505 162.941 44.0946C162.577 44.7224 162.104 45.2954 161.539 45.7924C160.974 46.2994 160.322 46.7224 159.606 47.0452C158.88 47.3711 158.104 47.5982 157.302 47.7189C156.448 47.8426 155.585 47.9094 154.72 47.9187C154.316 47.927 153.892 47.9318 153.481 47.9318L151.983 47.9343L11.5249 47.9318Z" fill="#22252C"/>
<path d="M40.0817 24.8683C40.0948 23.8459 40.3658 22.8433 40.8694 21.954C41.373 21.0648 42.0928 20.3176 42.9619 19.782C42.4098 18.9917 41.6814 18.3413 40.8346 17.8825C39.9879 17.4237 39.046 17.1691 38.0838 17.1389C36.0314 16.923 34.0417 18.3698 32.9959 18.3698C31.9298 18.3698 30.3195 17.1603 28.5855 17.1961C27.4639 17.2324 26.3708 17.5593 25.4127 18.1449C24.4546 18.7305 23.6643 19.5549 23.1186 20.5377C20.7548 24.6395 22.518 30.6678 24.7823 33.9834C25.9151 35.607 27.2391 37.4205 28.9716 37.3562C30.6669 37.2857 31.3 36.2727 33.3464 36.2727C35.3738 36.2727 35.9678 37.3562 37.7354 37.3153C39.5545 37.2857 40.7007 35.6845 41.7938 34.0456C42.6078 32.8888 43.2341 31.6102 43.6497 30.2573C42.5928 29.8093 41.6909 29.0594 41.0564 28.101C40.4219 27.1427 40.0829 26.0184 40.0817 24.8683Z" fill="#FEFEFE"/>
<path d="M36.7454 14.9584C37.7372 13.7649 38.2259 12.231 38.1076 10.6823C36.5922 10.8419 35.1924 11.5677 34.1872 12.7154C33.6957 13.276 33.3192 13.9282 33.0794 14.6348C32.8395 15.3413 32.7409 16.0883 32.7893 16.8331C33.5473 16.8409 34.2971 16.6762 34.9823 16.3515C35.6676 16.0268 36.2704 15.5504 36.7454 14.9584Z" fill="#FEFEFE"/>
<path d="M61.5117 33.2461H55.7265L54.3371 37.3577H51.8867L57.3664 22.1457H59.9123L65.392 37.3577H62.8998L61.5117 33.2461ZM56.3256 31.3488H60.9114L58.6508 24.6759H58.5875L56.3256 31.3488Z" fill="#FEFEFE"/>
<path d="M77.2243 31.8129C77.2243 35.2594 75.3838 37.4737 72.6064 37.4737C71.9028 37.5106 71.2031 37.3482 70.5873 37.005C69.9716 36.6618 69.4647 36.1518 69.1247 35.5333H69.0722V41.0267H66.8008V26.2669H68.9994V28.1116H69.0412C69.3968 27.4961 69.9122 26.9887 70.5327 26.6434C71.1531 26.2981 71.8553 26.1279 72.5646 26.1508C75.373 26.1509 77.2243 28.3759 77.2243 31.8129ZM74.8897 31.8129C74.8897 29.5675 73.7319 28.0912 71.9654 28.0912C70.23 28.0912 69.0626 29.5986 69.0626 31.8129C69.0626 34.0476 70.23 35.5441 71.9654 35.5441C73.7319 35.5441 74.8897 34.0787 74.8897 31.8129Z" fill="#FEFEFE"/>
<path d="M89.404 31.8129C89.404 35.2595 87.5635 37.4738 84.7861 37.4738C84.0825 37.5107 83.3828 37.3482 82.767 37.0051C82.1513 36.6619 81.6444 36.1519 81.3044 35.5334H81.2518V41.0267H78.9805V26.2669H81.179V28.1116H81.2208C81.5764 27.4961 82.0919 26.9887 82.7123 26.6435C83.3327 26.2982 84.035 26.128 84.7443 26.1509C87.5528 26.1509 89.404 28.376 89.404 31.8129ZM87.0694 31.8129C87.0694 29.5675 85.9116 28.0913 84.1451 28.0913C82.4096 28.0913 81.2423 29.5986 81.2423 31.8129C81.2423 34.0476 82.4096 35.5442 84.1451 35.5442C85.9116 35.5442 87.0694 34.0787 87.0694 31.8129H87.0694Z" fill="#FEFEFE"/>
<path d="M97.454 33.1193C97.6223 34.6278 99.0845 35.6183 101.083 35.6183C102.997 35.6183 104.374 34.6277 104.374 33.2675C104.374 32.0868 103.544 31.3798 101.577 30.8953L99.6096 30.4204C96.8226 29.7457 95.5288 28.4393 95.5288 26.3195C95.5288 23.6948 97.8109 21.892 101.051 21.892C104.259 21.892 106.457 23.6948 106.531 26.3195H104.238C104.101 24.8014 102.849 23.8851 101.019 23.8851C99.1895 23.8851 97.9374 24.8122 97.9374 26.1616C97.9374 27.2371 98.7371 27.8699 100.693 28.3543L102.366 28.7659C105.48 29.504 106.773 30.7577 106.773 32.9828C106.773 35.8288 104.512 37.6112 100.914 37.6112C97.5483 37.6112 95.2757 35.8706 95.1289 33.1192L97.454 33.1193Z" fill="#FEFEFE"/>
<path d="M111.676 23.6423V26.2669H113.78V28.0697H111.676V34.184C111.676 35.1338 112.098 35.5765 113.023 35.5765C113.272 35.5721 113.522 35.5545 113.77 35.5238V37.3158C113.354 37.3937 112.931 37.429 112.508 37.4211C110.268 37.4211 109.394 36.5777 109.394 34.4268V28.0697H107.785V26.2669H109.394V23.6423H111.676Z" fill="#FEFEFE"/>
<path d="M114.996 31.8129C114.996 28.3233 117.047 26.1305 120.244 26.1305C123.453 26.1305 125.494 28.3233 125.494 31.8129C125.494 35.312 123.463 37.4953 120.244 37.4953C117.026 37.4953 114.996 35.312 114.996 31.8129ZM123.179 31.8129C123.179 29.4191 122.085 28.0063 120.244 28.0063C118.404 28.0063 117.31 29.4299 117.31 31.8129C117.31 34.2162 118.404 35.6183 120.244 35.6183C122.085 35.6183 123.179 34.2162 123.179 31.8129H123.179Z" fill="#FEFEFE"/>
<path d="M127.367 26.2669H129.534V28.1546H129.586C129.733 27.5651 130.077 27.044 130.562 26.6791C131.047 26.3142 131.642 26.1277 132.248 26.1509C132.51 26.1499 132.771 26.1784 133.026 26.2358V28.3652C132.696 28.264 132.351 28.2175 132.005 28.2276C131.675 28.2142 131.346 28.2725 131.041 28.3986C130.736 28.5246 130.461 28.7154 130.236 28.9578C130.012 29.2002 129.842 29.4885 129.738 29.8029C129.635 30.1173 129.601 30.4504 129.639 30.7793V37.3577H127.367L127.367 26.2669Z" fill="#FEFEFE"/>
<path d="M143.501 34.1002C143.196 36.1135 141.24 37.4953 138.737 37.4953C135.518 37.4953 133.52 35.3336 133.52 31.8655C133.52 28.3867 135.528 26.1305 138.641 26.1305C141.703 26.1305 143.628 28.2384 143.628 31.6012V32.3811H135.812V32.5187C135.776 32.9269 135.827 33.3381 135.962 33.725C136.097 34.1119 136.312 34.4656 136.593 34.7628C136.875 35.0599 137.216 35.2936 137.595 35.4483C137.974 35.603 138.381 35.6752 138.789 35.6602C139.326 35.7106 139.865 35.586 140.325 35.3049C140.785 35.0238 141.143 34.6013 141.345 34.1002L143.501 34.1002ZM135.823 30.7901H141.355C141.376 30.4231 141.32 30.0558 141.192 29.7113C141.064 29.3668 140.867 29.0526 140.612 28.7883C140.357 28.5239 140.05 28.3153 139.711 28.1754C139.372 28.0355 139.008 27.9673 138.641 27.9752C138.271 27.973 137.905 28.0442 137.562 28.1848C137.22 28.3253 136.909 28.5324 136.647 28.7941C136.385 29.0558 136.177 29.367 136.036 29.7095C135.894 30.0521 135.822 30.4193 135.823 30.7901V30.7901Z" fill="#FEFEFE"/>
<path d="M56.0444 10.6955C56.5206 10.6612 56.9984 10.7333 57.4434 10.9066C57.8885 11.0799 58.2896 11.3499 58.6178 11.6974C58.9461 12.0448 59.1934 12.461 59.3417 12.9158C59.4901 13.3706 59.5359 13.8527 59.4759 14.3274C59.4759 16.6626 58.2167 18.0049 56.0444 18.0049H53.4102V10.6955H56.0444ZM54.5429 16.9712H55.9178C56.2581 16.9915 56.5986 16.9356 56.9146 16.8075C57.2306 16.6793 57.5141 16.4822 57.7445 16.2303C57.9749 15.9785 58.1464 15.6784 58.2464 15.3518C58.3465 15.0252 58.3726 14.6803 58.3229 14.3423C58.369 14.0056 58.3402 13.6629 58.2386 13.3387C58.137 13.0145 57.9651 12.7168 57.7353 12.467C57.5054 12.2172 57.2233 12.0214 56.9091 11.8937C56.5949 11.766 56.2564 11.7096 55.9178 11.7284H54.5429V16.9712Z" fill="#FEFEFE"/>
<path d="M60.7545 15.2443C60.7199 14.8818 60.7612 14.516 60.8759 14.1705C60.9906 13.825 61.1761 13.5073 61.4205 13.2378C61.6649 12.9683 61.9627 12.753 62.295 12.6057C62.6273 12.4583 62.9866 12.3822 63.3499 12.3822C63.7132 12.3822 64.0725 12.4583 64.4048 12.6057C64.7371 12.753 65.0349 12.9683 65.2793 13.2378C65.5237 13.5073 65.7092 13.825 65.8239 14.1705C65.9386 14.516 65.9799 14.8818 65.9453 15.2443C65.9806 15.6072 65.9397 15.9734 65.8253 16.3195C65.7109 16.6656 65.5256 16.9839 65.2811 17.2539C65.0367 17.5239 64.7386 17.7397 64.406 17.8873C64.0734 18.035 63.7137 18.1113 63.3499 18.1113C62.9861 18.1113 62.6264 18.035 62.2938 17.8873C61.9612 17.7397 61.6631 17.5239 61.4187 17.2539C61.1742 16.9839 60.9889 16.6656 60.8745 16.3195C60.7601 15.9734 60.7192 15.6072 60.7545 15.2443ZM64.8281 15.2443C64.8281 14.0486 64.2922 13.3494 63.3517 13.3494C62.4076 13.3494 61.8765 14.0486 61.8765 15.2443C61.8765 16.4496 62.4076 17.1434 63.3517 17.1434C64.2922 17.1434 64.8281 16.4448 64.8281 15.2443H64.8281Z" fill="#FEFEFE"/>
<path d="M72.8464 18.0048H71.7196L70.5821 13.9422H70.4962L69.3635 18.0048H68.2475L66.7305 12.4887H67.8321L68.818 16.6978H68.8992L70.0307 12.4887H71.0727L72.2042 16.6978H72.2902L73.2713 12.4887H74.3574L72.8464 18.0048Z" fill="#FEFEFE"/>
<path d="M75.6328 12.4886H76.6784V13.3649H76.7596C76.8972 13.0502 77.1295 12.7864 77.4239 12.6102C77.7183 12.434 78.0602 12.3543 78.4019 12.3822C78.6697 12.362 78.9386 12.4025 79.1887 12.5006C79.4387 12.5987 79.6636 12.7519 79.8465 12.949C80.0294 13.146 80.1658 13.3818 80.2455 13.6388C80.3252 13.8958 80.3462 14.1675 80.3069 14.4338V18.0047H79.2207V14.7072C79.2207 13.8207 78.8364 13.3799 78.0331 13.3799C77.8513 13.3714 77.6698 13.4024 77.5011 13.4708C77.3323 13.5392 77.1803 13.6433 77.0555 13.7761C76.9307 13.9089 76.836 14.0671 76.7779 14.24C76.7198 14.4129 76.6997 14.5963 76.719 14.7777V18.0047H75.6328L75.6328 12.4886Z" fill="#FEFEFE"/>
<path d="M82.0391 10.3353H83.1252V18.0047H82.0391V10.3353Z" fill="#FEFEFE"/>
<path d="M84.6372 15.2443C84.6027 14.8818 84.6441 14.516 84.7588 14.1705C84.8735 13.825 85.059 13.5072 85.3034 13.2378C85.5478 12.9683 85.8457 12.753 86.178 12.6056C86.5103 12.4583 86.8696 12.3822 87.233 12.3822C87.5963 12.3822 87.9557 12.4583 88.288 12.6056C88.6202 12.753 88.9181 12.9683 89.1625 13.2378C89.4069 13.5072 89.5924 13.825 89.7072 14.1705C89.8219 14.516 89.8633 14.8818 89.8287 15.2443C89.8639 15.6072 89.823 15.9735 89.7086 16.3196C89.5941 16.6657 89.4087 16.9839 89.1643 17.2539C88.9198 17.5239 88.6217 17.7397 88.2891 17.8873C87.9565 18.035 87.5968 18.1113 87.233 18.1113C86.8692 18.1113 86.5095 18.035 86.1768 17.8873C85.8442 17.7397 85.5461 17.5239 85.3017 17.2539C85.0572 16.9839 84.8718 16.6657 84.7574 16.3196C84.643 15.9735 84.602 15.6072 84.6372 15.2443ZM88.7109 15.2443C88.7109 14.0487 88.175 13.3494 87.2345 13.3494C86.2904 13.3494 85.7593 14.0487 85.7593 15.2443C85.7593 16.4496 86.2904 17.1435 87.2345 17.1435C88.175 17.1434 88.7109 16.4448 88.7109 15.2443H88.7109Z" fill="#FEFEFE"/>
<path d="M90.9688 16.4448C90.9688 15.4519 91.7064 14.8795 93.0157 14.7981L94.5065 14.712V14.2358C94.5065 13.6533 94.1222 13.3243 93.3798 13.3243C92.7734 13.3243 92.3533 13.5474 92.2327 13.9374H91.1812C91.2922 12.9899 92.1814 12.3822 93.4299 12.3822C94.8097 12.3822 95.5879 13.0707 95.5879 14.2358V18.0048H94.5423V17.2296H94.4564C94.2819 17.5076 94.037 17.7343 93.7466 17.8865C93.4562 18.0386 93.1306 18.1108 92.8033 18.0956C92.5722 18.1197 92.3387 18.095 92.1178 18.0231C91.8969 17.9512 91.6934 17.8337 91.5206 17.6782C91.3477 17.5226 91.2093 17.3325 91.1143 17.1201C91.0192 16.9076 90.9697 16.6776 90.9688 16.4448ZM94.5065 15.9734V15.5123L93.1625 15.5984C92.4046 15.6493 92.0609 15.9077 92.0609 16.3939C92.0609 16.8904 92.4905 17.1793 93.0814 17.1793C93.2545 17.1969 93.4294 17.1793 93.5956 17.1278C93.7619 17.0762 93.9161 16.9917 94.049 16.8792C94.182 16.7667 94.291 16.6285 94.3696 16.4729C94.4482 16.3173 94.4948 16.1475 94.5065 15.9734Z" fill="#FEFEFE"/>
<path d="M97.0156 15.2443C97.0156 13.5013 97.9096 12.3971 99.3001 12.3971C99.6441 12.3813 99.9854 12.4638 100.284 12.6352C100.583 12.8066 100.827 13.0597 100.988 13.3649H101.069V10.3353H102.155V18.0047H101.114V17.1332H101.028C100.855 17.4364 100.603 17.6863 100.298 17.856C99.9936 18.0256 99.6484 18.1085 99.3001 18.0956C97.9001 18.0957 97.0156 16.9915 97.0156 15.2443ZM98.1376 15.2443C98.1376 16.4143 98.6879 17.1183 99.6081 17.1183C100.524 17.1183 101.089 16.4041 101.089 15.2491C101.089 14.0995 100.518 13.3751 99.6081 13.3751C98.6938 13.3751 98.1376 14.0839 98.1376 15.2443H98.1376Z" fill="#FEFEFE"/>
<path d="M106.649 15.2443C106.614 14.8818 106.656 14.516 106.77 14.1705C106.885 13.825 107.071 13.5073 107.315 13.2378C107.559 12.9683 107.857 12.753 108.19 12.6057C108.522 12.4583 108.881 12.3822 109.244 12.3822C109.608 12.3822 109.967 12.4583 110.299 12.6057C110.632 12.753 110.929 12.9683 111.174 13.2378C111.418 13.5073 111.604 13.825 111.718 14.1705C111.833 14.516 111.874 14.8818 111.84 15.2443C111.875 15.6072 111.834 15.9734 111.72 16.3195C111.605 16.6656 111.42 16.9839 111.176 17.2539C110.931 17.5239 110.633 17.7397 110.301 17.8873C109.968 18.035 109.608 18.1113 109.244 18.1113C108.881 18.1113 108.521 18.035 108.188 17.8873C107.856 17.7397 107.558 17.5239 107.313 17.2539C107.069 16.9839 106.883 16.6656 106.769 16.3195C106.655 15.9734 106.614 15.6072 106.649 15.2443ZM110.723 15.2443C110.723 14.0486 110.187 13.3494 109.246 13.3494C108.302 13.3494 107.771 14.0486 107.771 15.2443C107.771 16.4496 108.302 17.1434 109.246 17.1434C110.187 17.1434 110.723 16.4448 110.723 15.2443Z" fill="#FEFEFE"/>
<path d="M113.297 12.4886H114.342V13.3649H114.424C114.561 13.0502 114.794 12.7864 115.088 12.6102C115.382 12.434 115.724 12.3543 116.066 12.3822C116.334 12.362 116.603 12.4025 116.853 12.5006C117.103 12.5987 117.328 12.7519 117.511 12.949C117.694 13.146 117.83 13.3818 117.91 13.6388C117.989 13.8958 118.01 14.1675 117.971 14.4338V18.0047H116.885V14.7072C116.885 13.8207 116.5 13.3799 115.697 13.3799C115.515 13.3714 115.334 13.4024 115.165 13.4708C114.996 13.5392 114.844 13.6433 114.72 13.7761C114.595 13.9089 114.5 14.0671 114.442 14.24C114.384 14.4129 114.364 14.5963 114.383 14.7777V18.0047H113.297V12.4886Z" fill="#FEFEFE"/>
<path d="M124.109 11.1153V12.5138H125.302V13.4307H124.109V16.2671C124.109 16.8449 124.347 17.0979 124.888 17.0979C125.026 17.0975 125.164 17.0891 125.302 17.0728V17.9796C125.107 18.0146 124.909 18.0332 124.711 18.0352C123.503 18.0352 123.022 17.6093 123.022 16.5458V13.4307H122.148V12.5137H123.022V11.1153H124.109Z" fill="#FEFEFE"/>
<path d="M126.785 10.3353H127.862V13.3751H127.948C128.092 13.0574 128.331 12.7921 128.631 12.6153C128.931 12.4385 129.279 12.3587 129.626 12.387C129.892 12.3724 130.159 12.417 130.406 12.5175C130.653 12.618 130.875 12.772 131.056 12.9684C131.237 13.1648 131.373 13.3988 131.453 13.6538C131.533 13.9088 131.557 14.1784 131.521 14.4434V18.0047H130.434V14.7119C130.434 13.8309 130.025 13.3847 129.257 13.3847C129.07 13.3693 128.883 13.395 128.707 13.46C128.531 13.525 128.372 13.6277 128.24 13.7609C128.108 13.8941 128.006 14.0546 127.943 14.2312C127.879 14.4078 127.855 14.5961 127.871 14.7831V18.0047H126.785L126.785 10.3353Z" fill="#FEFEFE"/>
<path d="M137.857 16.5153C137.709 17.0195 137.39 17.4556 136.954 17.7473C136.518 18.039 135.993 18.1678 135.472 18.1112C135.109 18.1208 134.749 18.0512 134.416 17.9072C134.083 17.7632 133.785 17.5483 133.543 17.2775C133.301 17.0066 133.121 16.6861 133.015 16.3385C132.909 15.9908 132.88 15.6242 132.93 15.264C132.881 14.9028 132.911 14.5354 133.017 14.1867C133.123 13.8379 133.302 13.516 133.542 13.2428C133.783 12.9695 134.079 12.7513 134.412 12.6028C134.744 12.4543 135.104 12.3791 135.467 12.3822C136.999 12.3822 137.922 13.4308 137.922 15.1629V15.5428H134.036V15.6038C134.019 15.8062 134.045 16.01 134.111 16.202C134.177 16.394 134.282 16.5701 134.42 16.7188C134.558 16.8676 134.726 16.9859 134.912 17.066C135.098 17.1461 135.299 17.1863 135.502 17.184C135.762 17.2153 136.025 17.1684 136.258 17.0493C136.491 16.9303 136.684 16.7444 136.811 16.5153L137.857 16.5153ZM134.036 14.7377H136.816C136.83 14.5525 136.805 14.3666 136.742 14.1917C136.68 14.0169 136.582 13.8571 136.454 13.7225C136.327 13.5879 136.172 13.4816 136.001 13.4103C135.83 13.3391 135.646 13.3044 135.461 13.3087C135.273 13.3063 135.087 13.3417 134.913 13.4127C134.739 13.4837 134.581 13.5888 134.448 13.722C134.315 13.8552 134.21 14.0137 134.14 14.1881C134.069 14.3625 134.034 14.5494 134.036 14.7377H134.036Z" fill="#FEFEFE"/>
</g>
<defs>
<clipPath id="clip0">
<rect width="165" height="49" fill="white"/>
</clipPath>
</defs>
</svg>
