<svg width="166" height="49" viewBox="0 0 166 49" fill="none" xmlns="http://www.w3.org/2000/svg">
<path d="M159.852 0H6.14815C2.75262 0 0 2.74224 0 6.12497V42.8748C0 46.2575 2.75262 48.9998 6.14815 48.9998H159.852C163.247 48.9998 166 46.2575 166 42.8748V6.12497C166 2.74224 163.247 0 159.852 0Z" fill="#22252C"/>
<path d="M159.852 0.979964C161.221 0.98154 162.534 1.52414 163.502 2.48873C164.47 3.45331 165.015 4.7611 165.016 6.12518V42.875C165.015 44.2391 164.47 45.5469 163.502 46.5114C162.534 47.476 161.221 48.0186 159.852 48.0202H6.14815C4.77889 48.0187 3.46618 47.4761 2.49799 46.5115C1.5298 45.5469 0.985217 44.2391 0.983704 42.875V6.12518C0.985194 4.76108 1.52977 3.45328 2.49797 2.48869C3.46616 1.5241 4.77889 0.981514 6.14815 0.979964H159.852ZM159.852 0.000213623H6.14815C4.51902 0.00496427 2.95799 0.651797 1.80602 1.79942C0.654049 2.94705 0.00476862 4.5022 0 6.12518L0 42.875C0.00476862 44.498 0.654049 46.0531 1.80602 47.2008C2.95799 48.3484 4.51902 48.9952 6.14815 49H159.852C161.481 48.9952 163.042 48.3484 164.194 47.2008C165.346 46.0531 165.995 44.498 166 42.875V6.12518C165.995 4.5022 165.346 2.94705 164.194 1.79942C163.042 0.651797 161.481 0.00496427 159.852 0.000213623Z" fill="#A6A6A6"/>
<path d="M58.3075 12.548C58.3298 12.9975 58.2601 13.4469 58.1026 13.8687C57.945 14.2905 57.703 14.6759 57.3911 15.0016C57.0417 15.3626 56.6196 15.6462 56.1526 15.8335C55.6855 16.0209 55.1841 16.108 54.6809 16.089C54.1746 16.0935 53.6724 15.9971 53.204 15.8056C52.7356 15.614 52.3104 15.3311 51.9533 14.9734C51.5962 14.6157 51.3144 14.1906 51.1246 13.7229C50.9348 13.2553 50.8408 12.7545 50.848 12.2501C50.8409 11.7457 50.9349 11.2449 51.1248 10.7773C51.3146 10.3096 51.5963 9.8844 51.9533 9.52671C52.3104 9.16903 52.7356 8.88603 53.204 8.69437C53.6724 8.5027 54.1746 8.40622 54.6809 8.4106C55.2015 8.40904 55.7169 8.51389 56.1952 8.71869C56.6394 8.89808 57.0348 9.17946 57.3492 9.53993L56.7007 10.1865C56.4536 9.89671 56.1429 9.66737 55.7927 9.51617C55.4425 9.36496 55.0621 9.29593 54.6809 9.3144C54.2972 9.31243 53.917 9.38763 53.5631 9.5355C53.2092 9.68337 52.8889 9.90087 52.6214 10.175C52.3539 10.4491 52.1447 10.7741 52.0063 11.1307C51.8679 11.4873 51.8031 11.868 51.8159 12.2501C51.8067 12.8224 51.9684 13.3845 52.2803 13.8652C52.5923 14.3459 53.0405 14.7234 53.5681 14.95C54.0958 15.1766 54.679 15.2419 55.244 15.1378C55.809 15.0337 56.3302 14.7648 56.7415 14.3652C57.1201 13.9588 57.3396 13.4304 57.3599 12.8763H54.6809V11.9935H58.2558C58.2896 12.1764 58.3069 12.362 58.3075 12.548Z" fill="#FEFEFE" stroke="#FEFEFE" stroke-width="0.244999" stroke-miterlimit="10"/>
<path d="M63.9713 9.47814H60.6115V11.8084H63.6412V12.6914H60.6115V15.0217H63.9713V15.9249H59.6641V8.57495H63.9713V9.47814Z" fill="#FEFEFE" stroke="#FEFEFE" stroke-width="0.244999" stroke-miterlimit="10"/>
<path d="M67.9741 15.9249H67.0255V9.47814H64.9648V8.57495H70.0347V9.47814H67.9741V15.9249Z" fill="#FEFEFE" stroke="#FEFEFE" stroke-width="0.244999" stroke-miterlimit="10"/>
<path d="M73.6992 15.9249V8.57495H74.6467V15.9249H73.6992Z" fill="#FEFEFE" stroke="#FEFEFE" stroke-width="0.244999" stroke-miterlimit="10"/>
<path d="M78.8529 15.9249H77.9042V9.47814H75.8438V8.57495H80.9135V9.47814H78.8529V15.9249Z" fill="#FEFEFE" stroke="#FEFEFE" stroke-width="0.244999" stroke-miterlimit="10"/>
<path d="M90.5091 14.9751C89.7909 15.6883 88.8183 16.0888 87.8042 16.0888C86.7902 16.0888 85.8175 15.6883 85.0994 14.9751C84.7442 14.6166 84.4649 14.1906 84.2782 13.7225C84.0915 13.2543 84.0012 12.7536 84.0127 12.25C84.0012 11.7463 84.0915 11.2456 84.2782 10.7774C84.4649 10.3093 84.7442 9.88331 85.0994 9.52484C85.4544 9.17114 85.8758 8.89066 86.3397 8.69944C86.8036 8.50822 87.3008 8.41002 87.8028 8.41046C88.3049 8.41091 88.8019 8.50998 89.2654 8.70202C89.729 8.89406 90.1499 9.17529 90.5043 9.52962C90.8598 9.88714 91.1396 10.3122 91.3271 10.7795C91.5146 11.2468 91.606 11.7468 91.5958 12.25C91.607 12.7535 91.5165 13.2542 91.3298 13.7223C91.1432 14.1904 90.8641 14.6164 90.5091 14.9751ZM85.7995 14.3596C86.3313 14.8886 87.0521 15.1857 87.8036 15.1857C88.5551 15.1857 89.2759 14.8886 89.8078 14.3596C90.0805 14.0815 90.2938 13.7511 90.4348 13.3885C90.5758 13.0259 90.6415 12.6386 90.628 12.25C90.6415 11.8613 90.5758 11.474 90.4348 11.1114C90.2938 10.7488 90.0805 10.4184 89.8078 10.1403C89.2759 9.61133 88.5551 9.31425 87.8036 9.31425C87.0521 9.31425 86.3313 9.61133 85.7995 10.1403C85.5271 10.4187 85.3142 10.7491 85.1734 11.1117C85.0327 11.4743 84.9671 11.8615 84.9805 12.25C84.9671 12.6385 85.0327 13.0257 85.1734 13.3882C85.3142 13.7508 85.5271 14.0813 85.7995 14.3596Z" fill="#FEFEFE" stroke="#FEFEFE" stroke-width="0.244999" stroke-miterlimit="10"/>
<path d="M92.9297 15.9249V8.57495H94.0837L97.6693 14.2926H97.7101L97.6693 12.8761V8.57495H98.618V15.9249H97.6285L93.8771 9.93028H93.8363L93.8771 11.3467V15.9249H92.9297Z" fill="#FEFEFE" stroke="#FEFEFE" stroke-width="0.244999" stroke-miterlimit="10"/>
<path d="M83.7848 26.6457C82.7513 26.6496 81.7421 26.9585 80.8847 27.5334C80.0272 28.1082 79.36 28.9233 78.9672 29.8757C78.5744 30.828 78.4737 31.875 78.6777 32.8844C78.8817 33.8937 79.3814 34.8202 80.1136 35.5469C80.8458 36.2736 81.7777 36.7678 82.7916 36.9672C83.8056 37.1667 84.8561 37.0623 85.8106 36.6674C86.7651 36.2725 87.5807 35.6047 88.1545 34.7483C88.7282 33.8919 89.0345 32.8854 89.0344 31.8557C89.0446 31.1671 88.9156 30.4834 88.6551 29.8454C88.3947 29.2074 88.008 28.6282 87.5182 28.1421C87.0285 27.656 86.4455 27.273 85.8041 27.0159C85.1628 26.7589 84.476 26.633 83.7848 26.6457ZM83.7848 35.0134C83.1483 35.0586 82.5129 34.9119 81.9613 34.5923C81.4097 34.2727 80.9675 33.7951 80.6922 33.2216C80.4168 32.6481 80.3212 32.0053 80.4178 31.3769C80.5143 30.7486 80.7985 30.1637 81.2333 29.6985C81.6682 29.2332 82.2336 28.9092 82.8559 28.7686C83.4782 28.628 84.1285 28.6773 84.7223 28.91C85.3161 29.1428 85.8258 29.5483 86.185 30.0737C86.5443 30.5991 86.7364 31.22 86.7364 31.8557C86.7557 32.2573 86.6942 32.6587 86.5554 33.0363C86.4167 33.4138 86.2035 33.7599 85.9285 34.0542C85.6534 34.3484 85.3221 34.5849 84.9539 34.7496C84.5858 34.9143 84.1883 35.004 83.7848 35.0134ZM72.3328 26.6457C71.2992 26.6496 70.29 26.9585 69.4326 27.5333C68.5751 28.1082 67.9079 28.9232 67.5151 29.8756C67.1223 30.828 67.0215 31.8749 67.2255 32.8843C67.4296 33.8937 67.9292 34.8202 68.6614 35.5469C69.3936 36.2735 70.3255 36.7678 71.3394 36.9672C72.3534 37.1667 73.4039 37.0623 74.3584 36.6674C75.3129 36.2725 76.1285 35.6047 76.7023 34.7483C77.2761 33.8919 77.5823 32.8854 77.5823 31.8557C77.5924 31.1671 77.4635 30.4834 77.203 29.8454C76.9425 29.2075 76.5559 28.6282 76.0661 28.1421C75.5764 27.656 74.9934 27.2731 74.3521 27.016C73.7107 26.7589 73.024 26.633 72.3328 26.6457ZM72.3328 35.0134C71.6963 35.0586 71.0609 34.9119 70.5093 34.5923C69.9577 34.2727 69.5154 33.7951 69.2401 33.2216C68.9648 32.6481 68.8692 32.0053 68.9657 31.3769C69.0623 30.7486 69.3464 30.1637 69.7813 29.6985C70.2162 29.2332 70.7815 28.9092 71.4038 28.7686C72.0261 28.628 72.6765 28.6773 73.2703 28.91C73.8641 29.1428 74.3738 29.5483 74.733 30.0737C75.0922 30.5991 75.2843 31.22 75.2844 31.8557C75.3037 32.2573 75.2422 32.6587 75.1034 33.0363C74.9647 33.4138 74.7515 33.7599 74.4765 34.0542C74.2014 34.3484 73.8701 34.5849 73.5019 34.7496C73.1337 34.9143 72.7362 35.004 72.3328 35.0134ZM58.7099 28.2443V30.4546H64.0191C63.9425 31.4913 63.5167 32.4719 62.8106 33.2373C62.2786 33.7775 61.6388 34.2007 60.9325 34.4794C60.2261 34.7581 59.469 34.8863 58.7099 34.8555C57.1581 34.8346 55.677 34.2057 54.587 33.1051C53.4971 32.0045 52.886 30.5205 52.886 28.9744C52.886 27.4283 53.4971 25.9444 54.587 24.8437C55.677 23.7431 57.1581 23.1143 58.7099 23.0933C60.2005 23.0739 61.6386 23.6413 62.7116 24.6721L64.2766 23.1131C63.5444 22.391 62.6749 21.8217 61.719 21.4388C60.7631 21.0558 59.7401 20.8669 58.7099 20.883C57.6334 20.8674 56.5644 21.0651 55.5653 21.4647C54.5661 21.8644 53.6567 22.4579 52.8899 23.2108C52.123 23.9637 51.5141 24.861 51.0984 25.8504C50.6828 26.8399 50.4688 27.9018 50.4688 28.9744C50.4688 30.047 50.6828 31.1089 51.0984 32.0984C51.5141 33.0879 52.123 33.9851 52.8899 34.7381C53.6567 35.491 54.5661 36.0845 55.5653 36.4841C56.5644 36.8837 57.6334 37.0815 58.7099 37.0659C59.7618 37.1093 60.811 36.9295 61.7878 36.5382C62.7646 36.1469 63.6467 35.5531 64.3756 34.7963C65.6696 33.3891 66.3594 31.5332 66.2972 29.6258C66.3023 29.1625 66.2624 28.6999 66.1782 28.2443H58.7099ZM114.422 29.9612C114.108 29.0175 113.51 28.193 112.709 27.5999C111.908 27.0067 110.943 26.6736 109.945 26.6457C109.273 26.6499 108.609 26.7897 107.993 27.0568C107.377 27.3239 106.822 27.7127 106.36 28.1997C105.899 28.6867 105.542 29.2618 105.311 29.8902C105.079 30.5186 104.978 31.1872 105.013 31.8557C104.998 32.5407 105.121 33.2217 105.376 33.8581C105.631 34.4944 106.012 35.073 106.497 35.5593C106.981 36.0457 107.559 36.4297 108.196 36.6886C108.833 36.9474 109.515 37.0757 110.203 37.0659C111.064 37.0706 111.914 36.8621 112.674 36.4591C113.435 36.0561 114.083 35.4712 114.561 34.7569L112.778 33.5728C112.511 34.0147 112.133 34.3798 111.682 34.6324C111.23 34.8849 110.721 35.0162 110.203 35.0134C109.67 35.0337 109.143 34.894 108.691 34.6125C108.239 34.331 107.882 33.9206 107.667 33.4346L114.66 30.5533L114.422 29.9612ZM107.291 31.698C107.266 31.3187 107.318 30.9385 107.442 30.5793C107.567 30.2202 107.762 29.8895 108.017 29.6065C108.272 29.3235 108.58 29.0939 108.925 28.9311C109.27 28.7684 109.643 28.6758 110.024 28.6587C110.421 28.6327 110.817 28.7237 111.162 28.9202C111.507 29.1167 111.787 29.4102 111.966 29.7639L107.291 31.698ZM101.605 36.7501H103.903V21.4357H101.605V36.7501ZM97.8414 27.8101H97.7622C97.4129 27.4319 96.9865 27.1324 96.5116 26.9316C96.0368 26.7309 95.5243 26.6334 95.0086 26.6457C93.6601 26.7029 92.3858 27.2768 91.4519 28.2476C90.518 29.2184 89.9966 30.5111 89.9966 31.8558C89.9966 33.2005 90.518 34.4931 91.4519 35.464C92.3858 36.4348 93.6601 37.0087 95.0086 37.0659C95.5264 37.0796 96.0409 36.9808 96.5165 36.7763C96.992 36.5718 97.4171 36.2666 97.7622 35.8818H97.8414V36.6317C97.8414 38.625 96.7718 39.6907 95.0482 39.6907C94.4738 39.677 93.9165 39.4932 93.4473 39.1628C92.9781 38.8325 92.6182 38.3704 92.4136 37.8355L90.4127 38.6645C90.7898 39.5792 91.4325 40.3608 92.2584 40.9093C93.0842 41.4578 94.0557 41.7482 95.0482 41.7431C97.7424 41.7431 100.021 40.1644 100.021 36.3159V26.9614H97.8414V27.8101ZM95.2068 35.0134C94.4126 34.9463 93.6725 34.5846 93.1332 33.9998C92.5939 33.4151 92.2946 32.6499 92.2946 31.8558C92.2946 31.0617 92.5939 30.2965 93.1332 29.7118C93.6725 29.127 94.4126 28.7653 95.2068 28.6982C95.602 28.7174 95.9892 28.8157 96.3454 28.9872C96.7016 29.1587 97.0195 29.3998 97.2802 29.6963C97.5408 29.9928 97.7389 30.3386 97.8625 30.713C97.9862 31.0873 98.0329 31.4827 97.9999 31.8755C98.0308 32.2658 97.9824 32.6583 97.8575 33.0295C97.7326 33.4008 97.5338 33.7431 97.2731 34.0361C97.0123 34.329 96.6949 34.5665 96.3399 34.7345C95.9849 34.9024 95.5995 34.9973 95.2068 35.0134ZM125.186 21.4359H119.689V36.7501H121.983V30.948H125.186C125.835 30.9835 126.485 30.8867 127.095 30.6637C127.705 30.4407 128.263 30.0961 128.735 29.651C129.207 29.2059 129.583 28.6696 129.84 28.0748C130.097 27.4801 130.229 26.8394 130.229 26.192C130.229 25.5445 130.097 24.9038 129.84 24.3091C129.583 23.7144 129.207 23.1781 128.735 22.7329C128.263 22.2878 127.705 21.9432 127.095 21.7202C126.485 21.4972 125.835 21.4005 125.186 21.4359ZM125.246 28.8168H121.983V23.5673H125.246C125.596 23.5601 125.945 23.6226 126.271 23.7513C126.597 23.8799 126.894 24.0721 127.144 24.3165C127.395 24.561 127.594 24.8528 127.73 25.1748C127.866 25.4969 127.936 25.8427 127.936 26.192C127.936 26.5414 127.866 26.8872 127.73 27.2092C127.594 27.5313 127.395 27.8231 127.144 28.0675C126.894 28.312 126.597 28.5042 126.271 28.6328C125.945 28.7615 125.596 28.824 125.246 28.8168ZM139.425 26.6175C138.588 26.5688 137.755 26.7647 137.027 27.1812C136.3 27.5977 135.711 28.2166 135.332 28.962L137.369 29.8093C137.571 29.4393 137.876 29.136 138.249 28.9365C138.621 28.737 139.044 28.6501 139.465 28.6862C140.047 28.6296 140.628 28.8052 141.08 29.1745C141.532 29.5438 141.819 30.0767 141.878 30.6563V30.814C141.141 30.424 140.319 30.221 139.485 30.2229C137.29 30.2229 135.055 31.4248 135.055 33.6708C135.076 34.1442 135.193 34.6084 135.398 35.036C135.602 35.4636 135.891 35.8459 136.247 36.1601C136.603 36.4743 137.019 36.7141 137.47 36.8652C137.921 37.0163 138.397 37.0757 138.872 37.0398C139.449 37.0737 140.026 36.9526 140.54 36.6893C141.055 36.4259 141.49 36.0299 141.799 35.5425H141.878V36.7246H144.093V30.8534C144.093 28.1346 142.056 26.6175 139.425 26.6175ZM139.148 35.0105C138.397 35.0105 137.349 34.6362 137.349 33.7101C137.349 32.5281 138.654 32.0749 139.781 32.0749C140.514 32.0555 141.238 32.2324 141.878 32.5872C141.793 33.2514 141.471 33.8628 140.969 34.3083C140.467 34.7537 139.821 35.0032 139.148 35.0105ZM152.161 26.9524L149.531 33.5919H149.452L146.723 26.9524H144.251L148.345 36.232L146.011 41.3939H148.404L154.713 26.9524H152.161ZM131.495 36.7501H133.789V21.4359H131.495V36.7501Z" fill="#FEFEFE"/>
<path d="M12.8314 9.23423C12.4281 9.71451 12.2245 10.3302 12.2623 10.9552V38.0473C12.2244 38.6723 12.428 39.2881 12.8314 39.7683L12.9223 39.8566L28.1562 24.6803V24.3222L12.9223 9.14529L12.8314 9.23423Z" fill="url(#paint0_linear)"/>
<path d="M33.2339 29.7413L28.1562 24.6803V24.3223L33.2351 19.2625L33.3496 19.3276L39.3659 22.7332C41.0845 23.7058 41.0845 25.2974 39.3659 26.2706L33.3496 29.6762L33.2339 29.7413Z" fill="url(#paint1_linear)"/>
<path d="M33.3463 29.6756L28.153 24.5014L12.8281 39.7683C13.1783 40.076 13.6254 40.252 14.0921 40.2657C14.5588 40.2794 15.0156 40.1301 15.3834 39.8436L33.3463 29.6756Z" fill="url(#paint2_linear)"/>
<path d="M33.3463 19.3268L15.3834 9.15887C15.0156 8.87234 14.5588 8.723 14.0921 8.73674C13.6254 8.75048 13.1783 8.92642 12.8281 9.23409L28.153 24.5012L33.3463 19.3268Z" fill="url(#paint3_linear)"/>
<path opacity="0.2" d="M33.2319 29.5616L15.3834 39.6645C15.0298 39.9327 14.5982 40.0791 14.1538 40.0814C13.7093 40.0838 13.2762 39.9421 12.9197 39.6776L12.8281 39.7689L12.9191 39.8572L12.9197 39.8566C13.2762 40.1212 13.7093 40.263 14.1538 40.2606C14.5982 40.2582 15.0299 40.1118 15.3834 39.8435L33.3463 29.6756L33.2319 29.5616Z" fill="#22252C"/>
<path opacity="0.12" d="M12.8313 39.59C12.4282 39.1096 12.2246 38.4939 12.2623 37.869V38.0479C12.2245 38.6729 12.4281 39.2886 12.8313 39.7689L12.9229 39.6777L12.8313 39.59Z" fill="#22252C"/>
<path opacity="0.12" d="M39.3652 26.0909L33.2344 29.5615L33.3489 29.6754L39.3652 26.2698C39.7191 26.1168 40.0253 25.8721 40.2521 25.5611C40.4788 25.2501 40.6176 24.8843 40.6542 24.5017C40.5781 24.8482 40.422 25.1722 40.1983 25.4481C39.9745 25.7239 39.6893 25.944 39.3652 26.0909Z" fill="#22252C"/>
<path opacity="0.25" d="M15.3861 9.33855L39.3653 22.9115C39.6895 23.0583 39.9749 23.2785 40.1987 23.5544C40.4224 23.8304 40.5785 24.1546 40.6544 24.5013C40.618 24.1185 40.4793 23.7525 40.2525 23.4414C40.0258 23.1302 39.7194 22.8854 39.3653 22.7325L15.3861 9.15958C13.6676 8.18681 12.2617 8.99482 12.2617 10.9558V11.1348C12.2617 9.17391 13.6676 8.3659 15.3861 9.33855Z" fill="#FEFEFE"/>
<defs>
<linearGradient id="paint0_linear" x1="26.8053" y1="10.6696" x2="6.24708" y2="31.3056" gradientUnits="userSpaceOnUse">
<stop stop-color="#00A0FF"/>
<stop offset="0.00657" stop-color="#00A1FF"/>
<stop offset="0.2601" stop-color="#00BEFF"/>
<stop offset="0.5122" stop-color="#00D2FF"/>
<stop offset="0.7604" stop-color="#00DFFF"/>
<stop offset="1" stop-color="#00E3FF"/>
</linearGradient>
<linearGradient id="paint1_linear" x1="41.6035" y1="24.5019" x2="11.8502" y2="24.5019" gradientUnits="userSpaceOnUse">
<stop stop-color="#FFE000"/>
<stop offset="0.4087" stop-color="#FFBD00"/>
<stop offset="0.7754" stop-color="#FFA500"/>
<stop offset="1" stop-color="#FF9C00"/>
</linearGradient>
<linearGradient id="paint2_linear" x1="30.5244" y1="27.3129" x2="2.64585" y2="55.2969" gradientUnits="userSpaceOnUse">
<stop stop-color="#FF3A44"/>
<stop offset="1" stop-color="#C31162"/>
</linearGradient>
<linearGradient id="paint3_linear" x1="8.96946" y1="0.215902" x2="21.4184" y2="12.712" gradientUnits="userSpaceOnUse">
<stop stop-color="#32A071"/>
<stop offset="0.0685" stop-color="#2DA771"/>
<stop offset="0.4762" stop-color="#15CF74"/>
<stop offset="0.8009" stop-color="#06E775"/>
<stop offset="1" stop-color="#00F076"/>
</linearGradient>
</defs>
</svg>
