<svg width="1559" height="1500" viewBox="0 0 1559 1500" fill="none" xmlns="http://www.w3.org/2000/svg">
<path d="M1090.97 207.32C1056.21 110.57 979.086 87.5331 944.87 88.1082C904.039 80.6348 808.435 128.419 772.222 185.928C726.211 258.996 632.798 366.478 521.605 418.806C472.413 441.955 382.903 455.971 236.427 495.219C-27.0523 589.388 112.39 746.966 215.046 813.984C348.959 895.951 427.275 982.994 449.694 1016.27C464.371 1027.07 526.142 1200.79 555.193 1286.31C634.383 1438.91 752 1403.5 820.809 1329.3C874.653 1264.54 1002.91 1126.57 1085.17 1092.74C1167.43 1058.91 1301.3 1015.19 1357.95 997.552C1553.06 901.081 1455.67 771.271 1382.59 718.425C1152.61 588.543 1134.42 328.257 1090.97 207.32Z" fill="url(#paint0_linear)" fill-opacity="0.5"/>
<g filter="url(#filter0_d)">
<path d="M537.88 740H485.464L429.88 538.4H478.264L513.112 679.52L551.992 538.4H589.432L628.312 679.52L663.16 538.4H711.544L655.96 740H603.544L570.712 621.056L537.88 740ZM893.495 713.792C873.143 733.952 848.375 744.032 819.191 744.032C790.007 744.032 765.239 733.952 744.887 713.792C724.535 693.632 714.359 668.768 714.359 639.2C714.359 609.632 724.535 584.768 744.887 564.608C765.239 544.448 790.007 534.368 819.191 534.368C848.375 534.368 873.143 544.448 893.495 564.608C913.847 584.768 924.023 609.632 924.023 639.2C924.023 668.768 913.847 693.632 893.495 713.792ZM760.439 639.2C760.439 656.864 766.007 671.264 777.143 682.4C788.279 693.536 802.295 699.104 819.191 699.104C835.895 699.104 849.815 693.536 860.951 682.4C872.279 671.072 877.943 656.672 877.943 639.2C877.943 621.728 872.279 607.328 860.951 596C849.815 584.864 835.895 579.296 819.191 579.296C802.295 579.296 788.279 584.864 777.143 596C766.007 607.136 760.439 621.536 760.439 639.2ZM1120.46 713.792C1100.11 733.952 1075.34 744.032 1046.16 744.032C1016.98 744.032 992.208 733.952 971.856 713.792C951.504 693.632 941.328 668.768 941.328 639.2C941.328 609.632 951.504 584.768 971.856 564.608C992.208 544.448 1016.98 534.368 1046.16 534.368C1075.34 534.368 1100.11 544.448 1120.46 564.608C1140.82 584.768 1150.99 609.632 1150.99 639.2C1150.99 668.768 1140.82 693.632 1120.46 713.792ZM987.408 639.2C987.408 656.864 992.976 671.264 1004.11 682.4C1015.25 693.536 1029.26 699.104 1046.16 699.104C1062.86 699.104 1076.78 693.536 1087.92 682.4C1099.25 671.072 1104.91 656.672 1104.91 639.2C1104.91 621.728 1099.25 607.328 1087.92 596C1076.78 584.864 1062.86 579.296 1046.16 579.296C1029.26 579.296 1015.25 584.864 1004.11 596C992.976 607.136 987.408 621.536 987.408 639.2ZM1176.94 538.4H1253.26C1273.22 538.4 1289.93 545.12 1303.37 558.56C1317 572.192 1323.82 588.512 1323.82 607.52C1323.82 626.528 1317 642.848 1303.37 656.48C1289.93 669.92 1273.22 676.64 1253.26 676.64H1223.02V740H1176.94V538.4ZM1223.02 633.44H1253.26C1260.36 633.44 1266.22 630.944 1270.82 625.952C1275.43 620.96 1277.74 614.816 1277.74 607.52C1277.74 600.224 1275.43 594.08 1270.82 589.088C1266.22 584.096 1260.36 581.6 1253.26 581.6H1223.02V633.44Z" fill="url(#paint1_linear)" fill-opacity="0.5" shape-rendering="crispEdges"/>
</g>
<defs>
<filter id="filter0_d" x="411.88" y="516.368" width="933.936" height="249.664" filterUnits="userSpaceOnUse" color-interpolation-filters="sRGB">
<feFlood flood-opacity="0" result="BackgroundImageFix"/>
<feColorMatrix in="SourceAlpha" type="matrix" values="0 0 0 0 0 0 0 0 0 0 0 0 0 0 0 0 0 0 127 0" result="hardAlpha"/>
<feOffset dx="2" dy="2"/>
<feGaussianBlur stdDeviation="10"/>
<feComposite in2="hardAlpha" operator="out"/>
<feColorMatrix type="matrix" values="0 0 0 0 0 0 0 0 0 0 0 0 0 0 0 0 0 0 0.06 0"/>
<feBlend mode="normal" in2="BackgroundImageFix" result="effect1_dropShadow"/>
<feBlend mode="normal" in="SourceGraphic" in2="effect1_dropShadow" result="shape"/>
</filter>
<linearGradient id="paint0_linear" x1="1358.02" y1="418.863" x2="296.122" y2="1314.8" gradientUnits="userSpaceOnUse">
<stop stop-color="#95E5FF"/>
<stop offset="0.359142" stop-color="#A9CCFB"/>
<stop offset="0.395445" stop-color="#ACC8FB"/>
<stop offset="0.457856" stop-color="#B1C2FA"/>
<stop offset="1" stop-color="#92ABFF"/>
</linearGradient>
<linearGradient id="paint1_linear" x1="807.602" y1="651" x2="812.42" y2="768.6" gradientUnits="userSpaceOnUse">
<stop stop-color="#D5DFFD"/>
<stop offset="1" stop-color="#D6E1FD"/>
</linearGradient>
</defs>
</svg>
