<svg width="123" height="80" viewBox="0 0 123 80" fill="none" xmlns="http://www.w3.org/2000/svg">
<circle cx="96" cy="14" r="11" stroke="#3280EF" stroke-width="2"/>
<rect x="95.0781" y="5.69226" width="1.84615" height="9.23077" rx="0.923077" fill="#3280EF"/>
<rect x="95.0781" y="14.9231" width="1.84615" height="7.38462" rx="0.923077" transform="rotate(-90 95.0781 14.9231)" fill="#3280EF"/>
<g clip-path="url(#clip0)">
<path d="M60.3778 31.3817L16.5468 75.2128C13.31 78.4497 8.04232 78.4497 4.80419 75.2126C1.62169 72.0301 1.51935 66.755 4.5806 63.6936L13.19 55.0858C13.4098 54.8661 13.5333 54.5664 13.5333 54.2556C13.5333 53.6083 13.0086 53.0845 12.3614 53.0845C12.0292 53.0845 11.729 53.2231 11.5158 53.4454L2.92341 62.0362C1.00591 63.9537 -0.0320577 66.5631 0.000754807 69.3831C0.0337236 72.2154 1.15107 74.8744 3.147 76.8703C5.2231 78.9454 7.9495 79.9831 10.6761 79.9831C13.4026 79.9831 16.1289 78.9453 18.204 76.8701L62.0351 33.0392C62.4928 32.5814 62.4928 31.8395 62.0351 31.3818C61.5775 30.9243 60.8354 30.9243 60.3778 31.3817Z" fill="#22252C"/>
<path d="M47.7403 30.6208L41.7104 36.6507C41.2528 37.1085 41.2528 37.8504 41.7104 38.308C41.9392 38.5368 42.2392 38.6512 42.539 38.6512C42.8389 38.6512 43.1389 38.5368 43.3676 38.308L49.3975 32.2782C49.8551 31.8204 49.8551 31.0785 49.3975 30.6208C48.9398 30.1633 48.1978 30.1633 47.7403 30.6208Z" fill="#22252C"/>
<path d="M38.137 40.224L36.5737 41.7873C36.1161 42.2451 36.1161 42.987 36.5737 43.4446C36.8025 43.6734 37.1025 43.7878 37.4023 43.7878C37.7021 43.7878 38.0022 43.6734 38.2309 43.4446L39.7942 41.8813C40.2518 41.4235 40.2518 40.6816 39.7942 40.224C39.3367 39.7665 38.5946 39.7665 38.137 40.224Z" fill="#22252C"/>
<path d="M79.6575 17.1096L62.908 0.360093C62.6883 0.140405 62.3902 0.0169678 62.0794 0.0169678C61.7686 0.0169678 61.4705 0.140405 61.2508 0.360093L54.1044 7.5065C53.6467 7.96431 53.6467 8.70619 54.1044 9.16384L54.9505 10.0099L15.4312 49.5306C15.2008 49.7446 15.0566 50.0504 15.0566 50.3899C15.0566 51.0373 15.582 51.5618 16.2292 51.5618C16.54 51.5618 16.8381 51.4384 17.0578 51.2185L56.6072 11.6677L58.7467 13.8073L56.0027 16.5513C55.545 17.0092 55.545 17.751 56.0027 18.2087L58.077 20.2831L52.4762 25.8838L49.7317 23.1393C49.2741 22.6818 48.532 22.6818 48.0745 23.1393L29.0917 42.122C28.8719 42.3418 28.7484 42.6398 28.7484 42.9507C28.7484 43.2617 28.8719 43.5595 29.0917 43.7795L31.8361 46.5238L15.8109 62.5495C15.1708 62.189 14.4462 61.996 13.6916 61.996C12.535 61.996 11.4475 62.4465 10.6297 63.2643L6.72141 67.1726C5.90359 67.9904 5.45312 69.0777 5.45312 70.2346C5.45312 71.3912 5.90359 72.4785 6.72141 73.2965C7.53922 74.1145 8.62672 74.5648 9.78328 74.5648C10.9398 74.5648 12.0273 74.1143 12.8452 73.2965L16.7533 69.3882C17.5711 68.5704 18.0216 67.4831 18.0216 66.3263C18.0216 65.5715 17.8286 64.8468 17.4681 64.2068L33.4934 48.1815L36.2381 50.9262C36.4669 51.1549 36.7669 51.2693 37.0667 51.2693C37.3666 51.2693 37.6666 51.1549 37.8953 50.9262L56.8781 31.9435C57.098 31.7237 57.2214 31.4257 57.2214 31.1148C57.2214 30.8038 57.098 30.506 56.8781 30.286L54.1334 27.5413L59.7342 21.9406L61.8089 24.0152C62.0377 24.244 62.3377 24.3584 62.6375 24.3584C62.9373 24.3584 63.2373 24.244 63.4661 24.0152L66.2103 21.2712L68.3495 23.4104L64.2437 27.516C63.7861 27.9738 63.7861 28.7157 64.2437 29.1734C64.7014 29.6309 65.4434 29.6309 65.9009 29.1734L70.0072 25.0671L70.8534 25.9134C71.0731 26.1331 71.3712 26.2565 71.682 26.2565C71.9928 26.2565 72.2909 26.1331 72.5106 25.9134L79.657 18.767C80.1152 18.3093 80.1152 17.5674 79.6575 17.1096ZM15.0961 67.7309L11.1878 71.6391C10.8127 72.0143 10.3137 72.221 9.78328 72.221C9.25266 72.221 8.75391 72.0145 8.37875 71.6391V71.639C8.00359 71.264 7.79687 70.7651 7.79687 70.2346C7.79687 69.704 8.00344 69.2051 8.37875 68.8301L12.287 64.9216C12.6622 64.5465 13.1609 64.3398 13.6916 64.3398C14.2219 64.3398 14.7203 64.5462 15.0953 64.921C15.0956 64.9212 15.0958 64.9215 15.0959 64.9218C15.0962 64.9221 15.0966 64.9223 15.0967 64.9226C15.4714 65.2976 15.6778 65.796 15.6778 66.3263C15.678 66.8568 15.4714 67.3557 15.0961 67.7309ZM37.0669 48.4401L31.5777 42.9509L48.9031 25.6254L51.6402 28.3624C51.6427 28.3651 51.6448 28.3677 51.6473 28.3704C51.6498 28.3729 51.6527 28.3751 51.6553 28.3776L54.3925 31.1148L37.0669 48.4401ZM66.4342 18.1793L61.8384 13.5835L67.3277 8.09431L71.9234 12.6901L66.4342 18.1793ZM62.0794 2.84603L65.6703 6.43697L60.1811 11.9262L56.5902 8.33525L62.0794 2.84603ZM62.6377 21.5293L58.4884 17.3801L60.4039 15.4645L64.5533 19.6137L62.6377 21.5293ZM71.6825 23.4276L68.0916 19.8367L73.5808 14.3474L77.1717 17.9384L71.6825 23.4276Z" fill="#22252C"/>
</g>
<defs>
<clipPath id="clip0">
<rect width="80" height="80" fill="white"/>
</clipPath>
</defs>
</svg>
