<svg width="81" height="80" viewBox="0 0 81 80" fill="none" xmlns="http://www.w3.org/2000/svg">
<g clip-path="url(#clip0)">
<path d="M60.8778 31.3817L17.0468 75.2128C13.81 78.4497 8.54232 78.4497 5.30419 75.2126C2.12169 72.0301 2.01935 66.755 5.0806 63.6936L13.69 55.0858C13.9098 54.8661 14.0333 54.5664 14.0333 54.2556C14.0333 53.6083 13.5086 53.0845 12.8614 53.0845C12.5292 53.0845 12.229 53.2231 12.0158 53.4454L3.42341 62.0362C1.50591 63.9537 0.467942 66.5631 0.500755 69.3831C0.533724 72.2154 1.65107 74.8744 3.647 76.8703C5.7231 78.9454 8.4495 79.9831 11.1761 79.9831C13.9026 79.9831 16.6289 78.9453 18.704 76.8701L62.5351 33.0392C62.9928 32.5814 62.9928 31.8395 62.5351 31.3818C62.0775 30.9243 61.3354 30.9243 60.8778 31.3817Z" fill="#22252C"/>
<path d="M48.2403 30.6208L42.2104 36.6507C41.7528 37.1085 41.7528 37.8504 42.2104 38.308C42.4392 38.5368 42.7392 38.6512 43.039 38.6512C43.3389 38.6512 43.6389 38.5368 43.8676 38.308L49.8975 32.2782C50.3551 31.8204 50.3551 31.0785 49.8975 30.6208C49.4398 30.1633 48.6978 30.1633 48.2403 30.6208Z" fill="#22252C"/>
<path d="M38.637 40.224L37.0737 41.7873C36.6161 42.2451 36.6161 42.987 37.0737 43.4446C37.3025 43.6734 37.6025 43.7878 37.9023 43.7878C38.2021 43.7878 38.5022 43.6734 38.7309 43.4446L40.2942 41.8813C40.7518 41.4235 40.7518 40.6816 40.2942 40.224C39.8367 39.7665 39.0946 39.7665 38.637 40.224Z" fill="#22252C"/>
<path d="M80.1575 17.1096L63.408 0.360093C63.1883 0.140405 62.8902 0.0169678 62.5794 0.0169678C62.2686 0.0169678 61.9705 0.140405 61.7508 0.360093L54.6044 7.5065C54.1467 7.96431 54.1467 8.70619 54.6044 9.16384L55.4505 10.0099L15.9312 49.5306C15.7008 49.7446 15.5566 50.0504 15.5566 50.3899C15.5566 51.0373 16.082 51.5618 16.7292 51.5618C17.04 51.5618 17.3381 51.4384 17.5578 51.2185L57.1072 11.6677L59.2467 13.8073L56.5027 16.5513C56.045 17.0092 56.045 17.751 56.5027 18.2087L58.577 20.2831L52.9762 25.8838L50.2317 23.1393C49.7741 22.6818 49.032 22.6818 48.5745 23.1393L29.5917 42.122C29.3719 42.3418 29.2484 42.6398 29.2484 42.9507C29.2484 43.2617 29.3719 43.5595 29.5917 43.7795L32.3361 46.5238L16.3109 62.5495C15.6708 62.189 14.9462 61.996 14.1916 61.996C13.035 61.996 11.9475 62.4465 11.1297 63.2643L7.22141 67.1726C6.40359 67.9904 5.95312 69.0777 5.95312 70.2346C5.95312 71.3912 6.40359 72.4785 7.22141 73.2965C8.03922 74.1145 9.12672 74.5648 10.2833 74.5648C11.4398 74.5648 12.5273 74.1143 13.3452 73.2965L17.2533 69.3882C18.0711 68.5704 18.5216 67.4831 18.5216 66.3263C18.5216 65.5715 18.3286 64.8468 17.9681 64.2068L33.9934 48.1815L36.7381 50.9262C36.9669 51.1549 37.2669 51.2693 37.5667 51.2693C37.8666 51.2693 38.1666 51.1549 38.3953 50.9262L57.3781 31.9435C57.598 31.7237 57.7214 31.4257 57.7214 31.1148C57.7214 30.8038 57.598 30.506 57.3781 30.286L54.6334 27.5413L60.2342 21.9406L62.3089 24.0152C62.5377 24.244 62.8377 24.3584 63.1375 24.3584C63.4373 24.3584 63.7373 24.244 63.9661 24.0152L66.7103 21.2712L68.8495 23.4104L64.7437 27.516C64.2861 27.9738 64.2861 28.7157 64.7437 29.1734C65.2014 29.6309 65.9434 29.6309 66.4009 29.1734L70.5072 25.0671L71.3534 25.9134C71.5731 26.1331 71.8712 26.2565 72.182 26.2565C72.4928 26.2565 72.7909 26.1331 73.0106 25.9134L80.157 18.767C80.6152 18.3093 80.6152 17.5674 80.1575 17.1096ZM15.5961 67.7309L11.6878 71.6391C11.3127 72.0143 10.8137 72.221 10.2833 72.221C9.75266 72.221 9.25391 72.0145 8.87875 71.6391V71.639C8.50359 71.264 8.29687 70.7651 8.29687 70.2346C8.29687 69.704 8.50344 69.2051 8.87875 68.8301L12.787 64.9216C13.1622 64.5465 13.6609 64.3398 14.1916 64.3398C14.7219 64.3398 15.2203 64.5462 15.5953 64.921C15.5956 64.9212 15.5958 64.9215 15.5959 64.9218C15.5962 64.9221 15.5966 64.9223 15.5967 64.9226C15.9714 65.2976 16.1778 65.796 16.1778 66.3263C16.178 66.8568 15.9714 67.3557 15.5961 67.7309ZM37.5669 48.4401L32.0777 42.9509L49.4031 25.6254L52.1402 28.3624C52.1427 28.3651 52.1448 28.3677 52.1473 28.3704C52.1498 28.3729 52.1527 28.3751 52.1553 28.3776L54.8925 31.1148L37.5669 48.4401ZM66.9342 18.1793L62.3384 13.5835L67.8277 8.09431L72.4234 12.6901L66.9342 18.1793ZM62.5794 2.84603L66.1703 6.43697L60.6811 11.9262L57.0902 8.33525L62.5794 2.84603ZM63.1377 21.5293L58.9884 17.3801L60.9039 15.4645L65.0533 19.6137L63.1377 21.5293ZM72.1825 23.4276L68.5916 19.8367L74.0808 14.3474L77.6717 17.9384L72.1825 23.4276Z" fill="#22252C"/>
</g>
<defs>
<clipPath id="clip0">
<rect width="80" height="80" fill="white" transform="translate(0.5)"/>
</clipPath>
</defs>
</svg>
