<svg width="24" height="24" viewBox="0 0 24 24" fill="none" xmlns="http://www.w3.org/2000/svg">
<circle cx="12" cy="12" r="11.5" stroke="#3280EF"/>
<rect x="11" y="4" width="1" height="9" rx="0.5" fill="#3280EF"/>
<rect x="11" y="13" width="1" height="7" rx="0.5" transform="rotate(-90 11 13)" fill="#3280EF"/>
<path d="M15.2222 19.7586C15.1303 19.4881 14.8322 19.342 14.5599 19.4353C12.503 20.1402 10.3145 19.9785 8.39774 18.9781C6.481 17.9777 5.09692 16.2748 4.4999 14.1847C4.42258 13.9066 4.13131 13.7475 3.85598 13.8263C3.57741 13.9045 3.41785 14.1944 3.49707 14.4712C4.17325 16.8404 5.74199 18.7691 7.91496 19.9032C10.0879 21.0373 12.5672 21.2214 14.8984 20.4218C15.1708 20.3285 15.3164 20.0314 15.2222 19.7586Z" fill="#3280EF"/>
</svg>
