<svg width="26" height="26" viewBox="0 0 26 26" fill="none" xmlns="http://www.w3.org/2000/svg">
<path d="M19.2548 2.43506H15.3374C14.8935 1.42921 13.8976 0.780029 12.798 0.780029C11.6983 0.780029 10.7024 1.42921 10.2585 2.43506H6.34094C4.8632 2.43677 3.66578 3.63439 3.66406 5.11212V22.478C3.66578 23.9558 4.8632 25.1534 6.34094 25.1551H19.2548C20.7325 25.1534 21.9301 23.9558 21.9318 22.478V5.11212C21.9301 3.63439 20.7325 2.43677 19.2548 2.43506ZM10.6993 3.65381C10.9853 3.65381 11.2329 3.45481 11.2944 3.17507C11.4441 2.49371 12.0765 1.99878 12.798 1.99878C13.5196 1.99878 14.1518 2.49371 14.3015 3.17507C14.3628 3.45481 14.6104 3.65381 14.8968 3.65381H16.105V4.18854C16.1041 4.99349 15.4519 5.64571 14.6469 5.64666H10.949C10.1438 5.64571 9.4916 4.99349 9.49065 4.18854V3.65381H10.6993ZM20.7131 22.478C20.7123 23.2832 20.0599 23.9356 19.2548 23.9363H6.34094C5.53599 23.9356 4.88377 23.2832 4.88281 22.478V5.11212C4.88377 4.30698 5.53599 3.65476 6.34094 3.65381H8.2719V4.18854C8.27361 5.66628 9.47122 6.8637 10.949 6.86541H14.6469C16.1247 6.8637 17.3221 5.66628 17.3238 4.18854V3.65381H19.2548C20.0599 3.65476 20.7121 4.30698 20.7131 5.11212V22.478Z" fill="#3280EF"/>
<path d="M15.8133 12.0392L11.8127 15.9453L9.7812 13.9624C9.54221 13.7285 9.15945 13.7314 8.9235 13.9683C8.68775 14.2053 8.6868 14.5881 8.9216 14.8261L8.92979 14.8341L11.3867 17.2332C11.6236 17.4644 12.0016 17.4644 12.2383 17.2332L16.6645 12.9116C16.9039 12.6762 16.9077 12.2917 16.6734 12.0516C16.4388 11.8114 16.0545 11.8061 15.8133 12.0396V12.0392Z" fill="#3280EF"/>
</svg>
