<svg width="24" height="24" viewBox="0 0 24 24" fill="none" xmlns="http://www.w3.org/2000/svg">
<path d="M6.78451 9.39136H4.69754C4.40954 9.39136 4.17578 9.62511 4.17578 9.91311V14.087C4.17578 14.375 4.40954 14.6088 4.69754 14.6088C4.98554 14.6088 5.21929 14.375 5.21929 14.087V10.4348H6.78451C7.07251 10.4348 7.30626 10.2011 7.30626 9.91306C7.30626 9.62506 7.07251 9.39136 6.78451 9.39136Z" fill="#3280EF"/>
<path d="M5.741 11.4783H4.69754C4.40954 11.4783 4.17578 11.712 4.17578 12C4.17578 12.288 4.40954 12.5217 4.69754 12.5217H5.741C6.029 12.5217 6.26275 12.288 6.26275 12C6.26275 11.712 6.029 11.4783 5.741 11.4783Z" fill="#3280EF"/>
<path d="M12 0C5.38332 0 0 5.38332 0 12C0 18.6166 5.38332 24 12 24C18.6166 24 24 18.6166 24 12C24 5.38332 18.6167 0 12 0ZM12 22.9565C5.95824 22.9565 1.04346 18.0417 1.04346 12C1.04346 5.95824 5.95824 1.04346 12 1.04346C18.0417 1.04346 22.9565 5.95824 22.9565 12C22.9565 18.0417 18.0417 22.9565 12 22.9565Z" fill="#3280EF"/>
<path d="M18.9183 6.45592C17.2227 4.34288 14.7016 3.13037 12.0011 3.13037C9.30058 3.13037 6.77955 4.34288 5.08388 6.45592C4.90335 6.68028 4.93886 7.00898 5.16425 7.18946C5.38861 7.37 5.71731 7.33449 5.89677 7.1091C7.39414 5.24336 9.61885 4.17378 12.0011 4.17378C14.3834 4.17378 16.6081 5.24336 18.1044 7.1091C18.2077 7.23745 18.359 7.30421 18.5114 7.30421C18.6272 7.30421 18.742 7.26665 18.838 7.18942C19.0634 7.00898 19.0989 6.68028 18.9183 6.45592Z" fill="#3280EF"/>
<path d="M17.9846 17.1432C17.778 16.946 17.4462 16.9544 17.248 17.1631C15.7506 18.7398 13.7356 19.609 11.5735 19.609C9.41142 19.609 7.3965 18.7397 5.90015 17.1631C5.70293 16.9523 5.37111 16.946 5.16347 17.1432C4.9527 17.3415 4.94537 17.6723 5.14366 17.881C6.83933 19.6685 9.12244 20.6525 11.5736 20.6525C14.0247 20.6525 16.3078 19.6685 18.0045 17.881C18.2028 17.6723 18.1944 17.3415 17.9846 17.1432Z" fill="#3280EF"/>
<path d="M10.1153 12.5082C10.8833 12.4091 11.4781 11.7507 11.4781 10.9566C11.4781 10.0936 10.7758 9.39136 9.91287 9.39136H8.86941C8.58141 9.39136 8.34766 9.62511 8.34766 9.91311V11.9959C8.34766 11.998 8.34766 12.0011 8.34766 12.0032V14.087C8.34766 14.375 8.58141 14.6088 8.86941 14.6088C9.15741 14.6088 9.39117 14.375 9.39117 14.087V13.2595L10.587 14.4564C10.6893 14.5576 10.8228 14.6088 10.9564 14.6088C11.09 14.6088 11.2235 14.5576 11.3247 14.4554C11.5282 14.2519 11.5282 13.9211 11.3247 13.7176L10.1153 12.5082ZM9.39117 11.4783V10.4349H9.91292C10.1999 10.4349 10.4347 10.6686 10.4347 10.9566C10.4347 11.2446 10.1999 11.4784 9.91292 11.4784H9.39117V11.4783Z" fill="#3280EF"/>
<path d="M15.1283 13.5653H13.563V10.4348H15.1283C15.4163 10.4348 15.65 10.2011 15.65 9.91306C15.65 9.62506 15.4163 9.39136 15.1283 9.39136H13.0413C12.7533 9.39136 12.5195 9.62511 12.5195 9.91311V14.087C12.5195 14.375 12.7533 14.6088 13.0413 14.6088H15.1283C15.4163 14.6088 15.65 14.375 15.65 14.087C15.65 13.799 15.4163 13.5653 15.1283 13.5653Z" fill="#3280EF"/>
<path d="M14.0886 11.4783H13.0452C12.7572 11.4783 12.5234 11.712 12.5234 12C12.5234 12.288 12.7572 12.5217 13.0452 12.5217H14.0886C14.3766 12.5217 14.6104 12.288 14.6104 12C14.6104 11.712 14.3766 11.4783 14.0886 11.4783Z" fill="#3280EF"/>
<path d="M19.304 13.5653H17.7388V10.4348H19.304C19.592 10.4348 19.8258 10.2011 19.8258 9.91306C19.8258 9.62506 19.592 9.39136 19.304 9.39136H17.2171C16.9291 9.39136 16.6953 9.62511 16.6953 9.91311V14.087C16.6953 14.375 16.9291 14.6088 17.2171 14.6088H19.304C19.592 14.6088 19.8258 14.375 19.8258 14.087C19.8258 13.799 19.592 13.5653 19.304 13.5653Z" fill="#3280EF"/>
<path d="M18.2605 11.4783H17.2171C16.9291 11.4783 16.6953 11.712 16.6953 12C16.6953 12.288 16.9291 12.5217 17.2171 12.5217H18.2605C18.5485 12.5217 18.7823 12.288 18.7823 12C18.7823 11.712 18.5485 11.4783 18.2605 11.4783Z" fill="#3280EF"/>
</svg>
