<svg width="27" height="7" viewBox="0 0 27 7" fill="none" xmlns="http://www.w3.org/2000/svg">
<path d="M6.884 3.408C6.884 4.248 6.584 4.968 5.984 5.568C5.384 6.168 4.664 6.468 3.824 6.468C2.984 6.468 2.264 6.168 1.664 5.568C1.064 4.968 0.764 4.248 0.764 3.408C0.764 2.568 1.064 1.848 1.664 1.248C2.264 0.648 2.984 0.348 3.824 0.348C4.664 0.348 5.384 0.648 5.984 1.248C6.584 1.848 6.884 2.568 6.884 3.408ZM16.5168 3.408C16.5168 4.248 16.2168 4.968 15.6168 5.568C15.0168 6.168 14.2968 6.468 13.4568 6.468C12.6168 6.468 11.8968 6.168 11.2968 5.568C10.6968 4.968 10.3968 4.248 10.3968 3.408C10.3968 2.568 10.6968 1.848 11.2968 1.248C11.8968 0.648 12.6168 0.348 13.4568 0.348C14.2968 0.348 15.0168 0.648 15.6168 1.248C16.2168 1.848 16.5168 2.568 16.5168 3.408ZM26.1496 3.408C26.1496 4.248 25.8496 4.968 25.2496 5.568C24.6496 6.168 23.9296 6.468 23.0896 6.468C22.2496 6.468 21.5296 6.168 20.9296 5.568C20.3296 4.968 20.0296 4.248 20.0296 3.408C20.0296 2.568 20.3296 1.848 20.9296 1.248C21.5296 0.648 22.2496 0.348 23.0896 0.348C23.9296 0.348 24.6496 0.648 25.2496 1.248C25.8496 1.848 26.1496 2.568 26.1496 3.408Z" fill="#3280EF" fill-opacity="0.5"/>
</svg>
