<svg width="44" height="44" viewBox="0 0 44 44" fill="none" xmlns="http://www.w3.org/2000/svg">
<path d="M28.3092 29.5739C29.0063 29.5739 29.5715 29.0088 29.5715 28.3116C29.5715 27.6145 29.0063 27.0493 28.3092 27.0493C27.612 27.0493 27.0469 27.6145 27.0469 28.3116C27.0469 29.0088 27.612 29.5739 28.3092 29.5739Z" fill="#3280EF" fill-opacity="0.3"/>
<path d="M31.2259 25.4961C31.5521 26.046 32.2627 26.2274 32.8125 25.9009C35.8367 24.1064 39.3049 23.1579 42.8421 23.1579C43.4815 23.1579 44 22.6394 44 22C44 21.3606 43.4815 20.8421 42.8421 20.8421C31.9882 20.8421 23.1579 12.0118 23.1579 1.15789C23.1579 0.518505 22.6395 0 22 0C21.3605 0 20.8421 0.518505 20.8421 1.15789C20.8421 12.0118 12.0118 20.8421 1.15789 20.8421C0.51839 20.8421 0 21.3606 0 22C0 22.6394 0.51839 23.1579 1.15789 23.1579C12.0118 23.1579 20.8421 31.9882 20.8421 42.8421C20.8421 43.4815 21.3605 44 22 44C22.6395 44 23.1579 43.4815 23.1579 42.8421C23.1579 39.3049 24.1064 35.8367 25.9009 32.8125C26.2272 32.2625 26.046 31.5522 25.4961 31.2259C24.9458 30.8992 24.2357 31.0808 23.9095 31.6307C23.1263 32.9504 22.4874 34.3454 21.9992 35.7911C19.8046 29.3213 14.6767 24.194 8.20658 22C14.6774 19.8058 19.8058 14.6774 22 8.20658C24.194 14.6767 29.3213 19.8046 35.791 21.9992C34.3454 22.4874 32.9504 23.1263 31.6306 23.9095C31.0808 24.2359 30.8995 24.9461 31.2259 25.4961Z" fill="#3280EF" fill-opacity="0.3"/>
</svg>
