<svg width="79" height="79" viewBox="0 0 79 79" fill="none" xmlns="http://www.w3.org/2000/svg">
<path d="M50.8328 53.0982C52.0845 53.0982 53.0992 52.0835 53.0992 50.8318C53.0992 49.5801 52.0845 48.5654 50.8328 48.5654C49.5811 48.5654 48.5664 49.5801 48.5664 50.8318C48.5664 52.0835 49.5811 53.0982 50.8328 53.0982Z" fill="#3280EF" fill-opacity="0.3"/>
<path d="M56.0646 45.7772C56.6503 46.7645 57.9261 47.09 58.9134 46.504C64.3432 43.282 70.5701 41.5789 76.9211 41.5789C78.069 41.5789 79 40.648 79 39.5C79 38.352 78.069 37.4211 76.9211 37.4211C57.4334 37.4211 41.5789 21.5666 41.5789 2.07895C41.5789 0.930953 40.6482 0 39.5 0C38.3518 0 37.4211 0.930953 37.4211 2.07895C37.4211 21.5666 21.5666 37.4211 2.07895 37.4211C0.930745 37.4211 0 38.352 0 39.5C0 40.648 0.930745 41.5789 2.07895 41.5789C21.5666 41.5789 37.4211 57.4334 37.4211 76.9211C37.4211 78.069 38.3518 79 39.5 79C40.6482 79 41.5789 78.069 41.5789 76.9211C41.5789 70.5701 43.282 64.3432 46.504 58.9134C47.0898 57.9259 46.7645 56.6505 45.7772 56.0646C44.7891 55.4782 43.514 55.8041 42.9284 56.7914C41.5222 59.161 40.375 61.6655 39.4985 64.2613C35.5583 52.645 26.3513 43.4392 14.7345 39.5C26.3525 35.5604 35.5604 26.3525 39.5 14.7345C43.4392 26.3513 52.645 35.5583 64.2611 39.4985C61.6655 40.375 59.161 41.5222 56.7912 42.9284C55.8041 43.5144 55.4786 44.7897 56.0646 45.7772Z" fill="#3280EF" fill-opacity="0.3"/>
</svg>
