<svg width="27" height="27" viewBox="0 0 27 27" fill="none" xmlns="http://www.w3.org/2000/svg">
<path d="M17.3722 18.1473C17.8 18.1473 18.1468 17.8005 18.1468 17.3727C18.1468 16.9449 17.8 16.5981 17.3722 16.5981C16.9445 16.5981 16.5977 16.9449 16.5977 17.3727C16.5977 17.8005 16.9445 18.1473 17.3722 18.1473Z" fill="#3280EF" fill-opacity="0.3"/>
<path d="M19.1613 15.6454C19.3615 15.9828 19.7975 16.0941 20.135 15.8938C21.9907 14.7926 24.1189 14.2105 26.2895 14.2105C26.6818 14.2105 27 13.8924 27 13.5C27 13.1076 26.6818 12.7895 26.2895 12.7895C19.6291 12.7895 14.2105 7.37086 14.2105 0.710526C14.2105 0.318174 13.8924 0 13.5 0C13.1076 0 12.7895 0.318174 12.7895 0.710526C12.7895 7.37086 7.37086 12.7895 0.710526 12.7895C0.318103 12.7895 0 13.1076 0 13.5C0 13.8924 0.318103 14.2105 0.710526 14.2105C7.37086 14.2105 12.7895 19.6291 12.7895 26.2895C12.7895 26.6818 13.1076 27 13.5 27C13.8924 27 14.2105 26.6818 14.2105 26.2895C14.2105 24.1189 14.7926 21.9907 15.8938 20.135C16.094 19.7975 15.9828 19.3616 15.6454 19.1613C15.3077 18.9609 14.8719 19.0723 14.6717 19.4097C14.1911 20.2196 13.7991 21.0756 13.4995 21.9627C12.1528 17.9926 9.00613 14.8463 5.03586 13.5C9.00656 12.1536 12.1536 9.00656 13.5 5.03586C14.8463 9.00613 17.9926 12.1528 21.9627 13.4995C21.0756 13.7991 20.2196 14.1911 19.4097 14.6717C19.0723 14.872 18.961 15.3079 19.1613 15.6454Z" fill="#3280EF" fill-opacity="0.3"/>
</svg>
