<svg width="48" height="48" viewBox="0 0 48 48" fill="none" xmlns="http://www.w3.org/2000/svg">
<path d="M13.9668 10.2818C15.6568 11.0396 16.3367 12.8312 16.5505 13.5663C16.6543 13.923 16.9736 14.1627 17.345 14.1627C17.7163 14.1627 18.0355 13.923 18.1394 13.5662C18.3533 12.8311 19.033 11.0395 20.7233 10.2818C21.021 10.1483 21.2135 9.85153 21.2135 9.52594C21.2135 9.20035 21.0211 8.90363 20.7233 8.77003C19.0331 8.01225 18.3533 6.22069 18.1394 5.4856C18.0356 5.12888 17.7163 4.88916 17.345 4.88916C16.9736 4.88916 16.6543 5.12888 16.5505 5.4856C16.3367 6.22069 15.6569 8.01225 13.9669 8.77003C13.669 8.90353 13.4766 9.20025 13.4766 9.52594C13.4766 9.85163 13.669 10.1483 13.9668 10.2818ZM17.345 7.26394C17.7351 8.02275 18.3354 8.87916 19.2365 9.52594C18.3354 10.1727 17.7352 11.0291 17.345 11.7879C16.9549 11.0291 16.3546 10.1727 15.4535 9.52594C16.3545 8.87916 16.9549 8.02275 17.345 7.26394Z" fill="#3280EF" fill-opacity="0.5"/>
<path d="M12.6856 14.2607C13.001 14.1193 13.2047 13.8054 13.2047 13.4608C13.2047 13.1163 13.0009 12.8022 12.6856 12.6609C10.2472 11.5677 9.27225 9.00301 8.96625 7.95095C8.85647 7.57342 8.51869 7.31982 8.12578 7.31982C7.73287 7.31982 7.39509 7.57351 7.28531 7.95095C6.97931 9.00292 6.00431 11.5676 3.56597 12.6609C3.25059 12.8023 3.04688 13.1163 3.04688 13.4608C3.04688 13.8054 3.25069 14.1194 3.56597 14.2607C6.00431 15.354 6.97931 17.9187 7.28541 18.9707C7.39519 19.3481 7.73297 19.6017 8.12587 19.6017C8.51869 19.6017 8.85647 19.3481 8.96634 18.9706C9.27225 17.9187 10.2473 15.354 12.6856 14.2607ZM8.12578 17.2056C7.5825 15.9974 6.63028 14.479 5.03269 13.4607C6.63028 12.4425 7.58259 10.9241 8.12587 9.71598C8.66916 10.9241 9.62147 12.4425 11.219 13.4607C9.62138 14.479 8.66906 15.9974 8.12578 17.2056Z" fill="#3280EF" fill-opacity="0.5"/>
<path d="M44.954 46.3698L44.8071 44.3121C44.8066 44.3054 44.8061 44.2988 44.8054 44.2922C44.4769 41.0067 43.8622 37.6846 43.8339 37.5323C43.3915 34.429 41.4648 33.0056 39.9238 32.3582C39.5829 32.2149 39.2468 32.1033 38.9277 32.0162V13.1737C38.9277 12.786 38.6135 12.4717 38.2258 12.4717C37.8381 12.4717 37.5238 12.7859 37.5238 13.1737V31.7533C37.1008 31.7089 36.8087 31.7096 36.7274 31.711C36.6463 31.7098 36.3541 31.7091 35.931 31.7535V7.80619H37.5238V9.85725C37.5238 10.2449 37.838 10.5592 38.2258 10.5592C38.6134 10.5592 38.9277 10.245 38.9277 9.85725V2.20041C38.9277 0.987094 37.9407 0 36.7273 0C35.514 0 34.5269 0.987094 34.5269 2.20041V32.0164C34.2078 32.1034 33.8717 32.215 33.5308 32.3583C33.1678 32.5108 32.7834 32.7072 32.402 32.9579L32.653 28.2558C33.2565 28.0935 33.7028 27.5431 33.7028 26.889V24.9529C33.7028 24.1717 33.0672 23.5361 32.286 23.5361H32.0293C32.1445 23.2334 32.2061 22.9084 32.2061 22.5744C32.2061 21.0842 30.9937 19.8719 29.5035 19.8719C29.1725 19.8719 28.8514 19.9305 28.5503 20.0442C27.9353 19.1579 26.9087 18.6001 25.8029 18.6001C25.4396 18.6001 25.0798 18.6602 24.7386 18.7751C24.2831 16.8712 22.5669 15.4516 20.5253 15.4516C18.4837 15.4516 16.7674 16.8711 16.3119 18.7751C15.9707 18.6602 15.6109 18.6001 15.2475 18.6001C13.4067 18.6001 11.9091 20.0977 11.9091 21.9384C11.9091 22.5038 12.0501 23.0516 12.3033 23.5361H11.8291C11.0479 23.5361 10.4124 24.1717 10.4124 24.9528V26.889C10.4124 27.5431 10.8585 28.0935 11.4621 28.2558L11.781 34.2318L9.70653 36.3063C9.32403 36.6888 9.11328 37.1974 9.11328 37.7384C9.11328 38.2794 9.32394 38.788 9.70653 39.1705C10.1014 39.5653 10.62 39.7627 11.1387 39.7627C11.4568 39.7627 11.7748 39.6877 12.0643 39.5391L12.3359 44.6283C12.4369 46.5189 13.9991 48 15.8923 48H28.223C28.6049 48 28.973 47.9388 29.3187 47.827C29.5334 47.9383 29.7731 48 30.0187 48H43.4362C43.8571 48 44.2631 47.8233 44.5499 47.5153C44.8366 47.2072 44.984 46.7897 44.954 46.3698ZM35.9309 2.20041C35.9309 1.76128 36.2882 1.404 36.7273 1.404C37.1665 1.404 37.5237 1.76128 37.5237 2.20041V6.40228H35.9309V2.20041ZM36.7078 33.1148C36.7202 33.1152 36.7341 33.1151 36.7464 33.1148C36.9396 33.1105 41.2248 33.0523 42.2851 36.9523H32.1889L32.3001 34.8683C33.9583 33.0787 36.5542 33.1111 36.7078 33.1148ZM15.2476 20.0041C15.6928 20.0041 16.1113 20.1515 16.4581 20.4303C16.6715 20.6018 16.9649 20.6336 17.21 20.5121C17.4552 20.3905 17.6073 20.1375 17.5997 19.8639L17.5987 19.8296C17.5981 19.8143 17.5975 19.799 17.5975 19.7835C17.5975 18.1691 18.9109 16.8557 20.5254 16.8557C22.1398 16.8557 23.4532 18.1691 23.4532 19.7835C23.4532 19.799 23.4525 19.8143 23.452 19.8296L23.4509 19.8639C23.4434 20.1375 23.5955 20.3904 23.8407 20.5121C24.0858 20.6337 24.3793 20.6018 24.5925 20.4303C24.9393 20.1515 25.3578 20.0041 25.803 20.0041C26.601 20.0041 27.3279 20.5054 27.6115 21.2515C27.6909 21.4603 27.8649 21.6188 28.0801 21.6786C28.2954 21.7383 28.5261 21.6919 28.7018 21.5537C28.9326 21.372 29.2099 21.276 29.5036 21.276C30.2196 21.276 30.8022 21.8586 30.8022 22.5746C30.8022 22.9442 30.6458 23.2917 30.3763 23.5363H14.0914C13.6137 23.172 13.3132 22.564 13.3132 21.9386C13.3131 20.8718 14.1809 20.0041 15.2476 20.0041ZM11.8165 24.9528C11.8165 24.9457 11.8222 24.94 11.8292 24.94H32.2861C32.2932 24.94 32.2989 24.9457 32.2989 24.9528V26.8889C32.2989 26.8959 32.2932 26.9017 32.2861 26.9017H26.4402C25.5084 26.9017 24.6834 27.4561 24.3384 28.3141C23.962 29.2506 23.0667 29.8555 22.0576 29.8555C22.002 29.8555 21.9471 29.8526 21.8923 29.8489L23.2075 28.5337C23.59 28.1512 23.8007 27.6427 23.8007 27.1016C23.8007 26.5606 23.5901 26.052 23.2075 25.6695C22.4178 24.8798 21.133 24.8798 20.3433 25.6695L18.81 27.2028C18.4735 27.0096 18.085 26.9016 17.6752 26.9016H11.8292C11.8222 26.9016 11.8165 26.8958 11.8165 26.8888V24.9528ZM17.7051 28.3078L13.1158 32.8971L12.8708 28.3057H17.6751C17.6854 28.3057 17.6951 28.3075 17.7051 28.3078ZM28.223 46.596H15.8923C14.7454 46.596 13.7991 45.6988 13.738 44.5536L13.4061 38.3353L16.4277 35.3138C16.7018 35.0396 16.7018 34.5952 16.4277 34.321C16.1535 34.0469 15.7091 34.0469 15.4349 34.321L11.5782 38.1778C11.3359 38.4201 10.9417 38.42 10.6994 38.1778C10.4572 37.9356 10.4572 37.5413 10.6994 37.2991L21.336 26.6625C21.5783 26.4202 21.9724 26.4202 22.2147 26.6625C22.457 26.9047 22.457 27.299 22.2147 27.5412L17.8065 31.9494C17.5324 32.2236 17.5324 32.668 17.8065 32.9422C18.0807 33.2163 18.5251 33.2163 18.7992 32.9422L20.7193 31.0221C21.1392 31.1762 21.5904 31.2596 22.0576 31.2596C23.643 31.2596 25.0497 30.309 25.641 28.8379C25.771 28.5146 26.0847 28.3058 26.4401 28.3058H31.2444L30.3774 44.5537C30.3163 45.6989 29.3699 46.596 28.223 46.596ZM43.5223 46.5585C43.5064 46.5756 43.4785 46.596 43.4361 46.596H41.243C41.0268 43.5571 40.4451 41.2993 40.4188 41.1982C40.3209 40.8232 39.9377 40.5983 39.5623 40.6961C39.1872 40.794 38.9623 41.1774 39.0602 41.5525C39.0663 41.5758 39.6209 43.7291 39.8351 46.596H37.4293V41.3753C37.4293 40.9877 37.1151 40.6733 36.7273 40.6733C36.3396 40.6733 36.0253 40.9876 36.0253 41.3753V46.596H33.6196C33.833 43.7438 34.3854 41.5877 34.3945 41.5526C34.4923 41.1774 34.2676 40.794 33.8924 40.6962C33.5174 40.5981 33.1339 40.8232 33.036 41.1982C33.0097 41.2994 32.4279 43.5572 32.2117 46.5961H31.0557C31.4755 46.0457 31.7398 45.3688 31.7792 44.6285L32.1139 38.3564H42.5551C42.7462 39.4498 43.1594 41.9465 43.4074 44.4221L43.5537 46.4698C43.5567 46.5121 43.5383 46.5413 43.5223 46.5585Z" fill="#3280EF" fill-opacity="0.5"/>
</svg>
