<svg width="48" height="48" viewBox="0 0 48 48" fill="none" xmlns="http://www.w3.org/2000/svg">
<path d="M46.3298 0.769387C43.1709 1.49484 39.9721 2.03401 36.75 2.38414V2.24989C36.75 1.85206 36.592 1.47053 36.3107 1.18923C36.0294 0.907922 35.6478 0.749887 35.25 0.749887H33.75C33.3522 0.749887 32.9706 0.907922 32.6893 1.18923C32.408 1.47053 32.25 1.85206 32.25 2.24989V2.78014C29.3797 2.96539 26.3633 3.04489 23.2605 2.99989C20.7855 2.96614 18.2625 2.84464 15.75 2.65789V2.24989C15.75 1.85206 15.592 1.47053 15.3107 1.18923C15.0294 0.907922 14.6478 0.749887 14.25 0.749887H12.75C12.3522 0.749887 11.9706 0.907922 11.6893 1.18923C11.408 1.47053 11.25 1.85206 11.25 2.24989C5.43 1.60639 1.70325 0.776887 1.665 0.767887C1.55522 0.743128 1.44127 0.743393 1.3316 0.768662C1.22193 0.793931 1.11936 0.843556 1.03148 0.91386C0.943599 0.984164 0.872667 1.07334 0.823941 1.17479C0.775215 1.27623 0.749944 1.38735 0.75 1.49989V4.49989C0.749953 4.67029 0.807938 4.83564 0.914407 4.96869C1.02088 5.10174 1.16948 5.19457 1.33575 5.23189C1.37475 5.24014 5.2455 6.10039 11.25 6.75439V10.0499L1.09275 16.6206C0.929486 16.7263 0.813667 16.8913 0.769729 17.0808C0.725792 17.2702 0.757172 17.4694 0.85725 17.6361L5.35725 25.1361C5.40947 25.2231 5.4788 25.2986 5.56105 25.3581C5.6433 25.4175 5.73675 25.4596 5.83575 25.4819C5.93478 25.5041 6.03729 25.506 6.13708 25.4874C6.23686 25.4689 6.33183 25.4302 6.41625 25.3739L12 21.6509V33.7499C11.0058 33.7487 10.0527 33.3532 9.34966 32.6502C8.64666 31.9472 8.25119 30.9941 8.25 29.9999V28.4999H6.75V29.9999C6.74881 30.9941 6.35334 31.9472 5.65034 32.6502C4.94733 33.3532 3.9942 33.7487 3 33.7499H1.5V35.2499H3C3.9942 35.2511 4.94733 35.6465 5.65034 36.3496C6.35334 37.0526 6.74881 38.0057 6.75 38.9999V40.4999H8.25V38.9999C8.25119 38.0057 8.64666 37.0526 9.34966 36.3496C10.0527 35.6465 11.0058 35.2511 12 35.2499V46.4999C12 46.6988 12.079 46.8896 12.2197 47.0302C12.3603 47.1709 12.5511 47.2499 12.75 47.2499H35.25C35.4489 47.2499 35.6397 47.1709 35.7803 47.0302C35.921 46.8896 36 46.6988 36 46.4999V21.6509L41.5837 25.3739C41.6682 25.4302 41.7631 25.4688 41.8629 25.4873C41.9627 25.5058 42.0651 25.5039 42.1641 25.4817C42.2631 25.4595 42.3566 25.4174 42.4389 25.358C42.5211 25.2986 42.5905 25.2231 42.6427 25.1361L47.1427 17.6361C47.2428 17.4694 47.2742 17.2702 47.2303 17.0808C47.1863 16.8913 47.0705 16.7263 46.9072 16.6206L36.75 10.0499V6.88939C40.0869 6.53502 43.3996 5.98102 46.6702 5.23039C46.8352 5.19195 46.9822 5.09884 47.0875 4.9662C47.1927 4.83357 47.25 4.66922 47.25 4.49989V1.49989C47.25 1.38692 47.2245 1.2754 47.1754 1.17367C47.1263 1.07194 47.0548 0.982623 46.9663 0.912386C46.8778 0.842148 46.7746 0.792807 46.6644 0.768045C46.5542 0.743284 46.4398 0.743743 46.3298 0.769387ZM7.5 36.3096C7.0544 35.567 6.43287 34.9455 5.69025 34.4999C6.43287 34.0543 7.0544 33.4328 7.5 32.6901C7.9456 33.4328 8.56713 34.0543 9.30975 34.4999C8.56713 34.9455 7.9456 35.567 7.5 36.3096ZM33.75 2.24989H35.25V10.4999H33.75V2.24989ZM30 11.2499C30 13.7316 27.3083 15.7499 24 15.7499C20.6917 15.7499 18 13.7316 18 11.2499C18.0038 11.0483 18.0256 10.8475 18.0653 10.6499C19.8851 11.6281 21.9361 12.0947 24 11.9999C26.0639 12.0947 28.1149 11.6281 29.9347 10.6499C29.9744 10.8475 29.9962 11.0483 30 11.2499ZM29.4592 9.17539C28.5863 9.77989 26.9303 10.4999 24 10.4999C21.0697 10.4999 19.4137 9.77989 18.5408 9.17539C17.7233 8.59679 16.7513 8.27627 15.75 8.25514V7.15264C18.5123 7.35514 21.282 7.47889 23.9948 7.49914C24.3043 7.49914 24.6133 7.49914 24.9217 7.49914C27.45 7.49989 29.9002 7.42489 32.25 7.27489V8.24989C31.2482 8.27256 30.2761 8.59493 29.4592 9.17539ZM23.2395 4.49989C23.822 4.50839 24.4015 4.51239 24.978 4.51189C27.477 4.51189 29.91 4.43314 32.253 4.28689V5.77489C29.6228 5.94214 26.853 6.01864 24.0083 5.99989C21.2895 5.97889 18.516 5.85514 15.75 5.64964V4.16014C18.2558 4.34464 20.775 4.46614 23.2395 4.49989ZM12.75 2.24989H14.25V10.4999H12.75V2.24989ZM2.25 3.89089V2.42014C3.73425 2.71264 6.94275 3.28939 11.25 3.75964V5.24989C6.759 4.75114 3.516 4.14589 2.25 3.89089ZM41.7615 23.6909L36 19.8486V17.2499H34.5V45.7499H13.5V17.2499H12V19.8486L6.2385 23.6894L2.51625 17.4854L11.6842 11.5536C11.8234 11.695 11.9893 11.8073 12.1722 11.884C12.3552 11.9606 12.5516 12 12.75 11.9999H14.25C14.6478 11.9999 15.0294 11.8419 15.3107 11.5605C15.592 11.2792 15.75 10.8977 15.75 10.4999V9.75514C16.0703 9.76115 16.388 9.81447 16.6927 9.91339C16.567 10.3478 16.5021 10.7976 16.5 11.2499C16.5 14.5581 19.8645 17.2499 24 17.2499C28.1355 17.2499 31.5 14.5581 31.5 11.2499C31.4979 10.7976 31.433 10.3478 31.3073 9.91339C31.612 9.81447 31.9297 9.76115 32.25 9.75514V10.4999C32.25 10.8977 32.408 11.2792 32.6893 11.5605C32.9706 11.8419 33.3522 11.9999 33.75 11.9999H35.25C35.4486 11.9995 35.6452 11.9595 35.8282 11.8822C36.0112 11.805 36.1769 11.692 36.3158 11.5499L45.4837 17.4816L41.7615 23.6909ZM45.75 3.89989C42.7793 4.55697 39.7748 5.05021 36.75 5.37739V3.89464C39.7738 3.57045 42.7781 3.08451 45.75 2.43889V3.89989Z" fill="#3280EF" fill-opacity="0.5"/>
<path d="M30.75 23.25V22.5H29.25V23.25C29.25 23.8467 29.0129 24.419 28.591 24.841C28.169 25.2629 27.5967 25.5 27 25.5H26.25V27H27C27.5967 27 28.169 27.2371 28.591 27.659C29.0129 28.081 29.25 28.6533 29.25 29.25V30H30.75V29.25C30.75 28.6533 30.9871 28.081 31.409 27.659C31.831 27.2371 32.4033 27 33 27H33.75V25.5H33C32.4033 25.5 31.831 25.2629 31.409 24.841C30.9871 24.419 30.75 23.8467 30.75 23.25ZM30 27.0232C29.7815 26.729 29.521 26.4685 29.2268 26.25C29.521 26.0315 29.7815 25.771 30 25.4768C30.2185 25.771 30.479 26.0315 30.7732 26.25C30.479 26.4685 30.2185 26.729 30 27.0232Z" fill="#3280EF" fill-opacity="0.5"/>
<path d="M43.5 37.5V36.75H42V37.5C42 38.0967 41.7629 38.669 41.341 39.091C40.919 39.5129 40.3467 39.75 39.75 39.75H39V41.25H39.75C40.3467 41.25 40.919 41.4871 41.341 41.909C41.7629 42.331 42 42.9033 42 43.5V44.25H43.5V43.5C43.5 42.9033 43.7371 42.331 44.159 41.909C44.581 41.4871 45.1533 41.25 45.75 41.25H46.5V39.75H45.75C45.1533 39.75 44.581 39.5129 44.159 39.091C43.7371 38.669 43.5 38.0967 43.5 37.5ZM42.75 41.2732C42.5315 40.979 42.271 40.7185 41.9768 40.5C42.271 40.2815 42.5315 40.021 42.75 39.7268C42.9685 40.021 43.229 40.2815 43.5232 40.5C43.229 40.7185 42.9685 40.979 42.75 41.2732Z" fill="#3280EF" fill-opacity="0.5"/>
</svg>
