<svg width="48" height="48" viewBox="0 0 48 48" fill="none" xmlns="http://www.w3.org/2000/svg">
<path d="M38.25 1.5H25.125C24.1813 1.50078 23.2662 1.82435 22.5318 2.41697L23.475 3.58303C23.9409 3.20349 24.5241 2.99742 25.125 3H38.25C40.0396 3.00201 41.7553 3.71381 43.0208 4.97925C44.2862 6.24468 44.998 7.96041 45 9.75V20.6894L41.4903 17.1796L42.2572 16.1571C42.4818 15.8576 42.6452 15.5169 42.7381 15.1544C42.831 14.7918 42.8515 14.4145 42.7986 14.044C42.7457 13.6735 42.6203 13.3171 42.4296 12.995C42.2389 12.673 41.9867 12.3916 41.6872 12.1671C41.3878 11.9425 41.0471 11.7791 40.6846 11.6862C40.322 11.5933 39.9447 11.5728 39.5742 11.6257C39.2037 11.6786 38.8472 11.804 38.5252 11.9947C38.2031 12.1854 37.9218 12.4376 37.6973 12.7371L37.6286 12.8286C37.0519 11.6346 36.7516 10.326 36.75 9C36.75 8.80109 36.671 8.61032 36.5303 8.46967C36.3897 8.32902 36.1989 8.25 36 8.25H25.125C24.4291 8.24921 23.7618 7.97239 23.2697 7.48028C22.7776 6.98817 22.5008 6.32095 22.5 5.625C22.4989 5.23208 22.5868 4.84401 22.7572 4.48997L21.4051 3.84047C21.137 4.39708 20.9985 5.00719 21 5.625C21.0011 6.47481 21.2641 7.30364 21.7533 7.99851C22.2426 8.69338 22.9341 9.2205 23.7338 9.50803C23.6504 9.77156 21.0189 21.583 21.0178 21.5873C20.9964 21.6848 20.9947 21.7855 21.0126 21.8836C21.0305 21.9818 21.0678 22.0754 21.1222 22.159C21.1767 22.2425 21.2472 22.3145 21.3298 22.3705C21.4123 22.4266 21.5051 22.4656 21.6029 22.4855L23.175 22.8L16.9285 26.1533L16.5322 25.411C16.4545 25.2654 16.3309 25.1496 16.1806 25.0815C16.0303 25.0134 15.8617 24.9968 15.701 25.0343C15.5936 24.53 15.3165 24.0778 14.9159 23.7531C14.5154 23.4283 14.0156 23.2508 13.5 23.25H7.5C7.32096 23.2501 7.14783 23.3141 7.01184 23.4306L1.76184 27.9306C1.67971 28.001 1.61378 28.0883 1.56859 28.1866C1.52339 28.2849 1.49999 28.3918 1.5 28.5V43.5C1.5 43.6989 1.57902 43.8897 1.71967 44.0303C1.86032 44.171 2.05109 44.25 2.25 44.25H6.75C7.22813 44.25 7.68956 43.7085 8.04 43.4282C9.01488 42.6521 9.8074 41.6715 10.3616 40.5554C10.9157 39.4394 11.218 38.2153 11.247 36.9696L14.1661 32.2988C14.4283 31.8812 14.5586 31.3943 14.5401 30.9015L17.6921 29.1484C17.864 29.0528 17.9914 28.8935 18.047 28.7049C18.1026 28.5162 18.0818 28.3133 17.9892 28.1398L17.6352 27.477L24.75 23.6571V30.75C24.7511 31.7442 25.1466 32.6974 25.8496 33.4004C26.5526 34.1034 27.5058 34.4989 28.5 34.5H32.25V39.1919L28.8763 40.2044C27.6807 40.5571 26.6319 41.2885 25.8877 42.2886C25.1436 43.2887 24.7443 44.5034 24.75 45.75C24.75 45.9489 24.829 46.1397 24.9697 46.2803C25.1103 46.421 25.3011 46.5 25.5 46.5H45.75C45.9489 46.5 46.1397 46.421 46.2803 46.2803C46.421 46.1397 46.5 45.9489 46.5 45.75V33H45V39H33.75V33.75C33.75 33.5511 33.671 33.3603 33.5303 33.2197C33.3897 33.079 33.1989 33 33 33H28.5C27.9035 32.9993 27.3316 32.762 26.9098 32.3402C26.488 31.9184 26.2507 31.3465 26.25 30.75V27H29.25V25.5H26.25V22.5C26.25 22.3266 26.1899 22.1586 26.08 22.0245C25.9701 21.8904 25.8171 21.7985 25.6471 21.7645L22.6483 21.1645C22.6483 21.1645 25.1361 10.0343 25.2365 9.75H35.2781C35.3775 11.0891 35.7368 12.3961 36.3358 13.5979L36.8296 14.5854C36.8868 14.6997 36.9722 14.7974 37.0778 14.8694C37.1834 14.9414 37.3056 14.9852 37.4329 14.9966C37.5601 15.0081 37.6882 14.9869 37.805 14.935C37.9217 14.8831 38.0233 14.8022 38.1 14.7L38.8969 13.6371C39.1117 13.3506 39.4315 13.1612 39.786 13.1106C40.1404 13.06 40.5005 13.1522 40.7869 13.367C41.0734 13.5818 41.2627 13.9017 41.3134 14.2561C41.364 14.6106 41.2718 14.9706 41.057 15.2571L39.9 16.8C39.7917 16.9444 39.7391 17.1231 39.7519 17.3032C39.7647 17.4833 39.842 17.6527 39.9697 17.7803L45 22.8107V31.5H46.5V9.75C46.4975 7.56273 45.6275 5.46575 44.0809 3.91911C42.5343 2.37247 40.4373 1.50248 38.25 1.5ZM12.8944 31.5038L9.864 36.3525C9.7895 36.4717 9.75 36.6094 9.75 36.75C9.75254 37.8081 9.51577 38.853 9.05741 39.8066C8.59905 40.7603 7.93097 41.5979 7.10316 42.2569L6.48684 42.75H3V28.845L7.77741 24.75H13.5C13.6989 24.75 13.8897 24.829 14.0303 24.9697C14.171 25.1103 14.25 25.3011 14.25 25.5C14.25 25.6989 14.171 25.8897 14.0303 26.0303C13.8897 26.171 13.6989 26.25 13.5 26.25H9.75C9.65151 26.25 9.55398 26.2694 9.46298 26.3071C9.37198 26.3448 9.2893 26.4 9.21966 26.4697L6.96966 28.7197C6.90001 28.7893 6.84477 28.872 6.80708 28.963C6.76939 29.054 6.75 29.1515 6.75 29.25V33.2832L5.44041 34.7506L6.55959 35.7494L11.3632 30.3667C11.521 30.1842 11.7421 30.068 11.982 30.0416C12.2219 30.0152 12.4629 30.0805 12.6567 30.2244C12.8504 30.3683 12.9826 30.5802 13.0267 30.8175C13.0708 31.0548 13.0235 31.2999 12.8944 31.5038ZM9.03394 28.7767L10.0607 27.75H10.8456L9.03394 28.7767ZM9.43706 30.2725L8.25 31.6025V30.9452L9.43706 30.2725ZM14.0127 29.4786C13.953 29.4019 13.8888 29.3288 13.8205 29.2597C13.4478 28.8879 12.9658 28.6454 12.4452 28.5677L15.572 26.7958L16.3193 28.1953L14.0127 29.4786ZM33.1101 40.5H45V45H26.3144C26.45 44.2165 26.8023 43.4867 27.3312 42.893C27.8601 42.2994 28.5447 41.8656 29.3074 41.6408L33.1101 40.5ZM27 16.5C27 16.945 27.132 17.38 27.3792 17.75C27.6264 18.12 27.9778 18.4084 28.389 18.5787C28.8001 18.749 29.2525 18.7936 29.689 18.7068C30.1254 18.62 30.5263 18.4057 30.841 18.091C31.1557 17.7763 31.37 17.3754 31.4568 16.939C31.5436 16.5025 31.499 16.0501 31.3287 15.639C31.1584 15.2278 30.87 14.8764 30.5 14.6292C30.13 14.382 29.695 14.25 29.25 14.25C28.6535 14.2507 28.0816 14.4879 27.6597 14.9097C27.2379 15.3316 27.0007 15.9035 27 16.5ZM30 16.5C30 16.6483 29.956 16.7933 29.8736 16.9167C29.7912 17.04 29.6741 17.1361 29.537 17.1929C29.4 17.2497 29.2492 17.2645 29.1037 17.2356C28.9582 17.2066 28.8246 17.1352 28.7197 17.0303C28.6148 16.9254 28.5434 16.7918 28.5144 16.6463C28.4855 16.5008 28.5003 16.35 28.5571 16.213C28.6139 16.0759 28.71 15.9588 28.8333 15.8764C28.9567 15.794 29.1017 15.75 29.25 15.75C29.4488 15.7502 29.6395 15.8293 29.7801 15.9699C29.9207 16.1105 29.9998 16.3012 30 16.5ZM4.98459 20.5291C6.06684 19.9385 7.82044 19.4204 10.0283 20.3036L9.47128 21.6964C6.32128 20.4362 4.42678 22.8495 4.34766 22.9526L3.15 22.05C3.65601 21.4278 4.27935 20.911 4.98459 20.5291Z" fill="#3280EF" fill-opacity="0.5"/>
</svg>
