<svg width="48" height="48" viewBox="0 0 48 48" fill="none" xmlns="http://www.w3.org/2000/svg">
<g clip-path="url(#clip0)">
<path d="M44.0676 38.9587C46.2796 38.6552 47.9895 36.754 47.9895 34.4599C47.9895 31.9552 45.9518 29.9176 43.4472 29.9176C40.9783 29.9176 38.9647 31.8978 38.9076 34.353C38.7262 34.3312 38.5434 34.3195 38.3596 34.3195C37.3002 34.3195 36.2966 34.6798 35.4879 35.3423C35.3203 35.2899 35.1422 35.2617 34.9576 35.2617H33.6082V31.7476C33.6082 28.7918 32.7973 26.0223 31.3876 23.6481C31.5251 23.1104 31.5956 22.5555 31.5956 21.996V17.8761H33.0915C34.4553 17.8761 35.5648 16.7665 35.5648 15.4028V10.834C35.5648 9.94247 35.4013 9.07284 35.0789 8.24934C34.9376 7.8885 34.5304 7.71037 34.1696 7.85175C33.8087 7.99303 33.6307 8.40009 33.772 8.76103C34.0303 9.42075 34.1613 10.1182 34.1613 10.834V15.4028C34.1613 15.9926 33.6814 16.4725 33.0915 16.4725H31.5956V14.3073C31.5956 10.6417 28.6134 7.65947 24.9478 7.65947H22.3555L23.21 6.981C24.7007 5.7975 26.5697 5.14575 28.473 5.14575C29.782 5.14575 31.0598 5.60119 32.0709 6.42806C32.3709 6.67341 32.8131 6.62916 33.0584 6.32906C33.3038 6.02897 33.2594 5.58694 32.9594 5.34159C31.6982 4.31025 30.1049 3.74222 28.4729 3.74222C26.254 3.74222 24.0751 4.50206 22.3372 5.88178L21.0105 6.93516V6.66769C21.0105 6.1815 20.7964 5.74547 20.4588 5.44537C20.9551 4.87725 21.678 4.53984 22.4488 4.53984C22.791 4.53984 23.1073 4.36884 23.2948 4.08253C23.4826 3.79594 23.513 3.43734 23.376 3.12338C22.5366 1.19672 20.3597 0 17.6948 0C15.0298 0 12.8529 1.19672 12.0134 3.12319C11.8764 3.43725 11.9068 3.79594 12.0946 4.08244C12.2821 4.36884 12.5983 4.53975 12.9406 4.53975C13.6961 4.53975 14.407 4.86562 14.9027 5.41481C14.5454 5.71547 14.3175 6.16519 14.3175 6.66759V6.73772L13.2393 5.88169C11.5015 4.50197 9.3225 3.74213 7.10363 3.74213C3.19322 3.74213 0.0117188 6.92353 0.0117188 10.834V15.4028C0.0117188 16.7665 1.12134 17.8761 2.48513 17.8761H3.79388V21.996C3.79388 22.556 3.86438 23.1097 4.00172 23.647C2.56491 26.0783 1.78116 28.8742 1.78116 31.7476V39.0673C1.78116 40.2281 2.72559 41.1727 3.8865 41.1727H9.54403C12.0149 41.1727 14.0251 39.1625 14.0251 36.6916V29.1205C14.0251 28.9589 14.0367 28.8001 14.0571 28.6439H21.3324C21.3528 28.8001 21.3644 28.9589 21.3644 29.1205V30.8631L18.9016 29.9828C18.4307 29.8146 17.9033 29.883 17.4909 30.1657C17.0784 30.4485 16.8247 30.9158 16.812 31.4156C16.7995 31.8997 17.0174 32.37 17.3948 32.6737L22.3816 36.6876L17.563 38.1592C17.563 38.1592 17.563 38.1592 17.5629 38.1592C16.9733 38.3392 16.5416 38.8285 16.4363 39.4358C16.3308 40.0432 16.5725 40.6493 17.067 41.0176C17.3457 41.2252 17.6904 41.3393 18.0378 41.3393H34.9577C35.5073 41.3393 35.9993 41.0891 36.3267 40.6969L39.2045 41.8382C39.0116 42.3416 38.9049 42.8873 38.9049 43.4578C38.9049 44.0799 39.0287 44.683 39.2726 45.2506C39.4258 45.6066 39.8383 45.7711 40.1947 45.6182C40.5506 45.465 40.7153 45.0523 40.5622 44.6963C40.3939 44.3048 40.3085 43.8881 40.3085 43.4577C40.3085 41.727 41.7166 40.3189 43.4473 40.3189C45.178 40.3189 46.5861 41.727 46.5861 43.4577C46.5861 45.1884 45.178 46.5965 43.4473 46.5965C43.1296 46.5965 42.8166 46.5493 42.5168 46.4564C42.1466 46.3421 41.7533 46.5487 41.6386 46.919C41.5239 47.2892 41.7309 47.6823 42.1012 47.7971C42.5358 47.9318 42.9886 48.0001 43.4473 48.0001C45.9519 48.0001 47.9896 45.9624 47.9896 43.4578C47.9896 41.1635 46.2796 39.2623 44.0676 38.9587ZM43.4472 31.3211C45.1779 31.3211 46.586 32.7292 46.586 34.4599C46.586 36.1906 45.1779 37.5986 43.4472 37.5986C41.7165 37.5986 40.3084 36.1906 40.3084 34.4599C40.3084 32.7292 41.7165 31.3211 43.4472 31.3211ZM15.721 6.66769C15.721 6.53869 15.8259 6.43378 15.9549 6.43378H19.3732C19.5022 6.43378 19.6071 6.53869 19.6071 6.66769V7.89337C19.6071 8.02238 19.5022 8.12728 19.3732 8.12728H15.9549C15.8259 8.12728 15.721 8.02238 15.721 7.89337V6.66769ZM13.5737 3.18637C14.4554 1.88269 16.2245 1.40353 17.6948 1.40353C19.165 1.40353 20.9339 1.8825 21.8157 3.18619C20.6702 3.36788 19.6479 4.03678 19.0235 5.03025H16.3654C15.741 4.03772 14.718 3.36834 13.5737 3.18637ZM2.48513 16.4725C1.89516 16.4725 1.41525 15.9926 1.41525 15.4028V10.834C1.41525 7.69744 3.96703 5.14566 7.10363 5.14566C9.00694 5.14566 10.876 5.79741 12.3666 6.98091L13.2211 7.65937H10.4418C6.77616 7.65937 3.79397 10.6416 3.79397 14.3072V16.4724H2.48513V16.4725ZM12.6216 29.1204V36.6915C12.6216 38.3885 11.241 39.769 9.54403 39.769H3.8865C3.4995 39.769 3.18469 39.4542 3.18469 39.0672V31.7475C3.18375 28.9939 3.97444 26.3184 5.41388 24.026C6.11625 22.9076 6.97266 21.8797 7.9695 20.9787C8.25703 20.7188 8.27953 20.2751 8.01966 19.9876C7.75978 19.7 7.31597 19.6776 7.02853 19.9374C6.35916 20.5423 5.74828 21.2 5.19741 21.9V14.3073C5.19741 11.4156 7.54997 9.063 10.4417 9.063H14.8112C15.1066 9.35194 15.5101 9.53081 15.9549 9.53081H19.3732C19.818 9.53081 20.2215 9.35194 20.5169 9.063H24.9478C27.8395 9.063 30.1921 11.4156 30.1921 14.3073V21.9067C28.7184 20.0393 26.8358 18.5093 24.6808 17.4519C24.7157 17.4545 24.7504 17.4573 24.7859 17.4573C25.579 17.4573 26.222 16.8143 26.222 16.0212C26.222 15.2281 25.579 14.5852 24.7859 14.5852C23.9928 14.5852 23.3498 15.2281 23.3498 16.0212C23.3498 16.4215 23.5139 16.7831 23.7781 17.0436C21.903 16.2649 19.8484 15.834 17.6948 15.834C15.6027 15.834 13.5355 16.2463 11.6188 17.037C11.8789 16.7771 12.0398 16.418 12.0398 16.0212C12.0398 15.2281 11.3969 14.5852 10.6038 14.5852C9.81066 14.5852 9.16772 15.2281 9.16772 16.0212C9.16772 16.8143 9.81066 17.4573 10.6038 17.4573C10.6349 17.4573 10.6653 17.4546 10.6958 17.4526C10.3842 17.6052 10.0773 17.7682 9.77588 17.9414C9.43978 18.1344 9.324 18.5635 9.51722 18.8994C9.71035 19.2354 10.1393 19.3515 10.4753 19.1581C12.6613 17.9016 15.1578 17.2374 17.6948 17.2374C25.6957 17.2374 32.2048 23.7466 32.2048 31.7475V35.2552H25.8456C24.1486 35.2552 22.768 33.8746 22.768 32.1776V29.1203C22.768 26.8847 21.3138 24.9835 19.3021 24.3097L21.2161 22.0883C21.7071 21.5186 21.8173 20.7399 21.5039 20.0561C21.1905 19.3723 20.5285 18.9476 19.7765 18.9476H15.6131C14.861 18.9476 14.1991 19.3723 13.8857 20.0561C13.5724 20.7398 13.6826 21.5186 14.1736 22.0883L16.0876 24.3097C14.0758 24.9836 12.6216 26.8848 12.6216 29.1204ZM17.6948 24.0001C17.6733 24.0001 17.6632 23.9883 17.6593 23.9839L15.2367 21.1723C15.0489 20.9543 15.1216 20.7281 15.1615 20.641C15.2015 20.5538 15.3254 20.3512 15.613 20.3512H19.7764C20.0641 20.3512 20.188 20.5539 20.228 20.641C20.2679 20.7282 20.3406 20.9543 20.1528 21.1723L17.7302 23.9839C17.7263 23.9883 17.7162 24.0001 17.6948 24.0001ZM14.5448 27.2403C15.1865 26.1694 16.3581 25.4508 17.6948 25.4508C19.0313 25.4508 20.2029 26.1694 20.8447 27.2403H14.5448ZM18.2151 31.4512C18.2311 31.3278 18.3083 31.2748 18.4292 31.3043L21.369 32.3551C21.4028 33.2168 21.6801 34.0168 22.1351 34.6874L18.275 31.5803C18.2361 31.5491 18.2138 31.5008 18.2151 31.4512ZM34.9576 39.9357H18.0377C17.7876 39.9227 17.719 39.5883 17.9729 39.5014H17.9728L26.1642 36.9997C26.8909 36.7777 27.6445 36.6653 28.4043 36.6653H34.9576C35.167 36.6653 35.3374 36.8356 35.3374 37.045V39.5559C35.3374 39.7654 35.167 39.9357 34.9576 39.9357ZM39.9127 40.6091L36.7409 39.3512V37.045C36.7409 36.7728 36.6778 36.5156 36.5682 36.2846C37.0902 35.9201 37.7094 35.7232 38.3596 35.7232C38.6147 35.7232 38.8667 35.7554 39.1116 35.8156C39.6297 37.4691 41.0699 38.7177 42.8269 38.9588C41.6542 39.1197 40.6231 39.7294 39.9127 40.6091Z" fill="#3280EF" fill-opacity="0.5"/>
<path d="M33.2937 39.0985C33.7738 39.0062 34.0881 38.5421 33.9957 38.062C33.9033 37.5819 33.4392 37.2676 32.9591 37.36C32.479 37.4524 32.1647 37.9165 32.2571 38.3966C32.3495 38.8767 32.8136 39.1909 33.2937 39.0985Z" fill="#3280EF" fill-opacity="0.5"/>
</g>
<defs>
<clipPath id="clip0">
<rect width="48" height="48" fill="white"/>
</clipPath>
</defs>
</svg>
