<svg width="105" height="105" viewBox="0 0 105 105" fill="none" xmlns="http://www.w3.org/2000/svg">
<g clip-path="url(#clip0)">
<path fill-rule="evenodd" clip-rule="evenodd" d="M28.3463 82.4588C19.5618 77.9732 9.87082 72.9936 6.32499 63.7925C2.66015 54.2826 3.80753 42.4543 9.74169 34.1818C15.3433 26.3728 27.1669 27.6944 35.5687 23.0251C43.1403 18.8172 47.7236 9.98106 56.2333 8.34419C65.9453 6.47605 76.602 7.90269 84.7161 13.5714C93.1232 19.4447 98.558 29.0878 100.367 39.1765C102.095 48.8195 103.371 59.4067 100.368 68.7257C97.1337 78.765 83.1306 78.0093 73.5667 82.4588C63.779 87.0125 63.3711 98.1273 52.8731 95.5711C44.9548 93.6431 35.6059 86.1658 28.3463 82.4588Z" fill="#AEC1FF" fill-opacity="0.31" stroke="#AEC1FF" stroke-width="4"/>
</g>
<defs>
<clipPath id="clip0">
<rect width="105" height="105" fill="white"/>
</clipPath>
</defs>
</svg>
