<svg width="105" height="105" viewBox="0 0 105 105" fill="none" xmlns="http://www.w3.org/2000/svg">
<g clip-path="url(#clip0)">
<path fill-rule="evenodd" clip-rule="evenodd" d="M69.697 17.3537C79.0431 20.5063 89.3581 24.015 94.2115 32.5986C99.2277 41.4703 99.8226 53.3392 95.1621 62.3906C90.7628 70.9349 78.8731 71.3567 71.2445 77.2046C64.3697 82.4746 61.128 91.886 52.9492 94.7499C43.6149 98.0183 32.8641 98.1656 24.0082 93.7445C14.8325 89.1639 8.04586 80.4194 4.78122 70.7037C1.66077 61.4171 5.05048 51.7668 6.65769 42.1089C8.38913 31.7045 5.69709 18.0585 14.5074 12.2581C23.5239 6.32194 35.1121 15.2988 45.871 16.2921C53.9863 17.0414 61.9732 14.7482 69.697 17.3537Z" fill="#A15CEF" fill-opacity="0.22" stroke="#A15CEF" stroke-width="4"/>
</g>
<defs>
<clipPath id="clip0">
<rect width="105" height="105" fill="white"/>
</clipPath>
</defs>
</svg>
